<svg width="50" height="50" viewBox="0 0 50 50" fill="none" xmlns="http://www.w3.org/2000/svg">
<path d="M29.2049 10.6891C26.9699 8.8321 24.2914 8.35001 21.7144 9.66372C20.336 10.6942 18.7051 12.6956 18.3365 14.487C17.931 16.4575 18.9342 20.4021 21.7144 21.3663C24.1848 22.2231 28.3828 21.6009 30.0949 18.9559C30.7436 17.9537 30.9878 16.0634 30.7115 14.1758C30.7115 12.9569 29.7078 10.8333 28.6943 10.2861" stroke="white" stroke-width="2" stroke-linecap="round" stroke-linejoin="round"/>
<path d="M23.6074 25.5C22.1838 26.0044 21.4229 25.8728 18.9264 27.364C17.054 28.4825 15.8137 30.2792 15.1816 31.4649C14.4335 32.8682 14.094 34.5571 13.3091 35.9386C13.3091 37.8026 12.3729 40.0395 13.3091 41.1579" stroke="white" stroke-width="2" stroke-linecap="round" stroke-linejoin="round"/>
<path d="M23.6069 25.5C27.3297 25.5 30.8481 27.0177 32.6832 29.996C34.6299 33.1555 34.8049 36.8805 36.1069 40.2368" stroke="white" stroke-width="2" stroke-linecap="round" stroke-linejoin="round"/>
<path d="M14.2065 41.1431C16.4777 41.6102 18.817 41.4542 21.1225 41.4542C22.7903 41.4542 24.1361 42.0766 25.7331 42.0766C28.8083 42.0766 38.0296 41.7654 34.9543 41.7654" stroke="white" stroke-width="2" stroke-linecap="round" stroke-linejoin="round"/>
<path d="M13.3421 37.0977C12.9516 38.972 12.5655 39.777 13.3421 41.4542" stroke="white" stroke-width="2" stroke-linecap="round" stroke-linejoin="round"/>
<path d="M14.2065 42.0765C16.3476 42.0765 18.5162 41.9476 20.5461 42.0765C21.6417 42.1461 24.1088 40.7468 24.5804 41.7653" stroke="white" stroke-width="2" stroke-linecap="round" stroke-linejoin="round"/>
</svg>
