<svg width="49" height="44" viewBox="0 0 49 44" fill="none" xmlns="http://www.w3.org/2000/svg">
<path d="M7.03735 13.6074C10.1864 13.6074 13.3045 13.6074 16.452 13.6074C20.0691 13.6074 23.7141 13.6074 27.3287 13.6074C29.904 13.6074 32.4116 13.6074 34.9929 13.6074C35.842 13.6074 36.9549 13.6074 37.7203 13.6074" stroke="white" stroke-width="2" stroke-linecap="round" stroke-linejoin="round"/>
<path d="M37.7198 13.6074C37.6692 16.4559 37.0726 19.0752 36.5631 21.8266C36.4366 22.5095 36.2999 23.1908 36.1792 23.8764C36.0224 24.7681 35.6991 25.625 35.5723 26.5166C35.4967 27.0486 35.0351 28.1595 35.2922 28.6527" stroke="white" stroke-width="2" stroke-linecap="round" stroke-linejoin="round"/>
<path d="M14.5515 29.2212C15.75 29.2965 18.6217 29.2212 18.6217 29.2212L28.3275 28.9537C28.3275 28.9537 32.7108 28.6528 34.9024 28.6528" stroke="white" stroke-width="2" stroke-linecap="round" stroke-linejoin="round"/>
<path d="M3.28003 11.2002C4.57318 11.9709 5.64632 13.1698 6.46094 14.3664C7.49452 15.8845 14.2382 28.9536 14.2382 28.9536" stroke="white" stroke-width="2" stroke-linecap="round" stroke-linejoin="round"/>
<path d="M16.4297 30.0688C16.8226 30.7035 17.1185 31.9316 17.9951 31.9628C20.6024 32.0556 23.2095 31.9628 25.8224 31.9628C27.5385 31.9628 32.0842 31.9628 32.0842 31.9628C32.0842 31.9628 32.3973 30.4583 32.3973 29.8564" stroke="white" stroke-width="2" stroke-linecap="round" stroke-linejoin="round"/>
<path d="M32.0065 32.4683C30.8383 32.7074 30.3603 33.441 30.1231 34.4917C30.1012 34.81 30.2051 35.3786 30.2385 35.5695C30.328 36.0821 30.6606 36.374 31.0136 36.6792C31.9514 37.4899 33.7431 37.2137 34.5229 36.3711C34.8993 35.9644 35.0691 35.5129 35.0691 34.9554C35.0691 34.391 34.8615 33.6575 34.4645 33.25C34.2931 33.074 33.9341 32.6924 33.6799 32.6218C32.9853 32.3454 32.6064 32.3454 32.0065 32.4683Z" stroke="white" stroke-linecap="round" stroke-linejoin="round"/>
<path d="M29.7959 34.6127C30.0579 33.4735 30.6076 32.6082 31.8887 32.3489C32.5466 32.2157 32.9619 32.2157 33.7229 32.5154C34.0014 32.5919 34.3943 33.0057 34.5819 33.1965C35.0163 33.6383 35.2425 34.4336 35.2414 35.0455C35.2403 35.65 35.0534 36.1394 34.6399 36.5805C33.7835 37.494 31.8187 37.7935 30.7921 36.9145C30.4057 36.5836 30.0416 36.2671 29.9445 35.7114C29.9083 35.5043 29.635 34.5462 29.9469 34.3131" stroke="white" stroke-linecap="round" stroke-linejoin="round"/>
<path d="M16.1428 32.4683C14.9746 32.7074 14.4965 33.441 14.2594 34.4917C14.2374 34.81 14.3413 35.3786 14.3747 35.5695C14.4642 36.0821 14.7968 36.374 15.1498 36.6792C16.0877 37.4899 17.8794 37.2137 18.6591 36.3711C19.0355 35.9644 19.2053 35.5129 19.2053 34.9554C19.2053 34.391 18.9977 33.6575 18.6007 33.25C18.4293 33.074 18.0703 32.6924 17.8161 32.6218C17.1215 32.3454 16.7426 32.3454 16.1428 32.4683Z" stroke="white" stroke-linecap="round" stroke-linejoin="round"/>
<path d="M13.9321 34.6127C14.1941 33.4735 14.7438 32.6082 16.0249 32.3489C16.6828 32.2157 17.0982 32.2157 17.8591 32.5154C18.1377 32.5919 18.5305 33.0057 18.7181 33.1965C19.1525 33.6383 19.3787 34.4336 19.3776 35.0455C19.3766 35.65 19.1896 36.1394 18.7761 36.5805C17.9197 37.494 15.955 37.7935 14.9283 36.9145C14.5419 36.5836 14.1779 36.2671 14.0807 35.7114C14.0445 35.5043 13.7712 34.5462 14.0832 34.3131" stroke="white" stroke-linecap="round" stroke-linejoin="round"/>
<path d="M14.5515 18.7393C16.7431 18.8981 19.1118 18.8981 21.3056 18.8981C23.4428 18.8981 25.58 18.8981 27.7171 18.8981C29.5481 18.8981 31.2955 18.8981 33.2259 18.8187C33.8107 18.7603 34.6314 18.7227 35.2155 18.7227" stroke="white" stroke-width="2" stroke-linecap="round" stroke-linejoin="round"/>
<path d="M29.5796 19.6255C29.4125 20.721 28.4108 26.447 28.0142 27.449" stroke="white" stroke-width="2" stroke-linecap="round" stroke-linejoin="round"/>
<path d="M20.1869 19.6255C20.0134 21.7213 19.68 23.6083 19.3211 25.6286C19.213 26.2369 18.9346 27.449 18.9346 27.449" stroke="white" stroke-width="2" stroke-linecap="round" stroke-linejoin="round"/>
<path d="M15.804 24.4402C20.2217 24.1543 24.7052 24.1798 29.1324 23.9424C30.7435 23.856 32.3479 23.8384 33.9632 23.8384" stroke="white" stroke-width="2" stroke-linecap="round" stroke-linejoin="round"/>
<path d="M42.8076 1C42.8076 3.25479 42.8076 5.43662 42.8076 7.76056C42.8076 8.82022 42.8076 9.89514 42.8076 11" stroke="white" stroke-linecap="round" stroke-linejoin="round"/>
<path d="M42.9509 1C42.4909 3.29277 43.2958 5.5679 43.1808 7.8254C43.0659 10.0829 42.9509 9.97707 43.1808 11" stroke="white" stroke-linecap="round" stroke-linejoin="round"/>
<path d="M38 6.19238C40.2548 6.19238 42.4366 6.19238 44.7606 6.19238C45.8202 6.19238 46.8951 6.19238 48 6.19238" stroke="white" stroke-linecap="round" stroke-linejoin="round"/>
<path d="M38 6.04913C40.2928 6.50908 42.5679 5.70416 44.8254 5.81915C47.0829 5.93414 46.9771 6.04913 48 5.81915" stroke="white" stroke-linecap="round" stroke-linejoin="round"/>
</svg>
