<svg width="50" height="50" viewBox="0 0 50 50" fill="none" xmlns="http://www.w3.org/2000/svg">
<path d="M25.6965 17.169C26.2851 14.452 27.9702 13.6512 30.1941 12.3993C31.1292 11.8729 32.2438 12.0184 33.3266 12.0184C34.4094 12.0184 35.3881 12.0447 36.5844 12.5263C39.0088 13.5022 41.0008 15.5071 41.0008 17.6046C41.0008 21.8169 40.8643 22.8148 38.9651 25.2221C38.0791 26.3451 37.1733 26.8599 36.2085 27.6202C35.2717 28.3585 34.4768 29.3551 33.5215 30.0465C32.6092 30.7068 31.8967 31.5774 31.1965 32.4446C29.8211 33.1824 26.2543 36.7815 25.8225 38.3129C25.564 39.2297 25.753 40.6801 24.6113 39.6389C24.4502 39.4921 21.0588 35.0254 13.1747 29.3865C7.14572 23.2778 9.25263 20.466 9.46458 17.6046C11.3196 12.9398 16.527 11.6405 21.0588 12.3993C24.6113 12.3993 25.8048 17.2239 25.6965 17.169Z" stroke="#FF0000" stroke-width="2" stroke-linecap="round" stroke-linejoin="round"/>
</svg>
