<svg width="35" height="30" viewBox="0 0 35 30" fill="none" xmlns="http://www.w3.org/2000/svg">
<path d="M18.6957 6.16897C19.2844 3.45195 20.9695 2.65116 23.1933 1.39932C24.1285 0.87292 25.243 1.01845 26.3258 1.01845C27.4086 1.01845 28.3874 1.04474 29.5836 1.52628C32.0081 2.50222 34.0001 4.50708 34.0001 6.60461C34.0001 10.8169 33.8635 11.8148 31.9643 14.2221C31.0784 15.3451 30.1725 15.8599 29.2077 16.6202C28.271 17.3585 27.4761 18.3551 26.5208 19.0465C25.6085 19.7068 24.896 20.5774 24.1957 21.4446C22.8204 22.1824 19.2536 25.7815 18.8218 27.3129C18.5633 28.2297 18.7523 29.6801 17.6105 28.6389C17.4495 28.4921 14.0581 24.0254 6.17397 18.3865C0.144983 12.2778 2.2519 9.46604 2.46385 6.60461C4.3189 1.93981 9.52626 0.640503 14.0581 1.39932C17.6105 1.39932 18.8041 6.22387 18.6957 6.16897Z" stroke="white" stroke-width="2" stroke-linecap="round" stroke-linejoin="round"/>
</svg>
