<svg width="50" height="50" viewBox="0 0 50 50" fill="none" xmlns="http://www.w3.org/2000/svg">
<path d="M5 24.9619C8.18639 20.0081 12.128 19.8139 15.9677 16.917C17.3106 15.9039 20.104 15.1356 21.6129 15.1356C24.247 15.1356 27.7038 14.4791 30.1613 16.055C31.7477 17.0724 33.9037 16.0554 35.4839 17.4629C36.6454 18.4975 38.257 18.3821 39.2652 19.6752C40.0185 20.6413 44.3587 25.4759 45 24.9619" stroke="white" stroke-width="2" stroke-linecap="round" stroke-linejoin="round"/>
<path d="M5 26.4913C10.843 33.3748 17.2194 34.2001 24.3402 34.9145C28.2178 35.3035 31.5487 34.3447 35.1913 32.4566C36.8435 31.6002 38.9586 30.2901 40.4126 28.7559C41.1598 27.9674 41.5377 26.8597 42.4194 26.2428C42.9729 25.8554 43.7389 25.8119 44 25" stroke="white" stroke-width="2" stroke-linecap="round" stroke-linejoin="round"/>
<path d="M18.7656 24.4203C19.3126 21.9361 20.4657 20.0492 23.1599 19.4837C24.5434 19.1933 25.4172 19.1933 27.0191 19.8467C27.6054 20.0137 28.4334 20.9159 28.8288 21.332C29.7442 22.2954 30.223 24.0296 30.223 25.364C30.223 26.6821 29.8315 27.7494 28.9633 28.7111C27.1651 30.7031 23.0328 31.3563 20.8699 29.4394C20.0557 28.7179 19.2887 28.0277 19.0822 26.8159C19.0053 26.3645 18.4269 24.2751 19.0822 23.7669" stroke="white" stroke-width="2" stroke-linecap="round" stroke-linejoin="round"/>
<path d="M20.0977 24.6053C20.5461 22.5379 21.4916 20.9676 23.7007 20.497C24.8351 20.2553 25.5516 20.2553 26.8651 20.799C27.3458 20.938 28.0247 21.6889 28.3489 22.0352C29.0995 22.837 29.4921 24.2802 29.4921 25.3908C29.4921 26.4877 29.1711 27.376 28.4592 28.1763C26.9848 29.8342 23.5966 30.3777 21.823 28.7825C21.1554 28.182 20.5265 27.6076 20.3572 26.5991C20.2942 26.2234 19.8199 24.4845 20.3572 24.0616" stroke="white" stroke-width="2" stroke-linecap="round" stroke-linejoin="round"/>
<path d="M18.1017 24.5538C18.707 21.8604 19.9754 19.8146 22.9303 19.2015C24.4477 18.8867 25.4056 18.8867 27.1603 19.5951C27.8027 19.7761 28.7083 20.7544 29.1408 21.2055C30.1423 22.25 30.6633 24.1302 30.6603 25.577C30.6573 27.0061 30.2256 28.1633 29.2717 29.206C27.2958 31.3658 22.7642 32.074 20.3973 29.9957C19.5063 29.2134 18.667 28.4651 18.4434 27.1513C18.3601 26.6618 17.7307 24.3964 18.4502 23.8454" stroke="white" stroke-width="0.5" stroke-linecap="round" stroke-linejoin="round"/>
<circle cx="25" cy="25" r="4" fill="white"/>
</svg>
