<svg width="53" height="46" viewBox="0 0 53 46" fill="none" xmlns="http://www.w3.org/2000/svg">
<path d="M41.1317 1.37787C35.5665 -1.29619 35.3772 11.0774 29.2184 11.6888C22.4829 12.3576 21.7911 -1.57434 15.3134 2.4228C9.66009 5.91122 20.696 13.1662 17.3051 18.8034C13.8607 24.5297 0.78326 17.8227 1.00273 24.4744C1.29795 33.422 16.8086 21.3694 21.1717 27.9802C24.7899 33.4622 12.6634 41.491 19.9177 44.6839C26.212 47.4544 23.4921 31.1129 30.368 30.661C35.1231 30.3485 37.6946 39.5871 41.1317 36.3321C44.8788 32.7835 36.0042 29.6694 37.5786 25.5055C39.6237 20.0972 52 27.2539 52 21.4843C52 15.7146 40.8396 22.2562 37.5786 17.463C33.9467 12.1244 46.994 4.19464 41.1317 1.37787Z" stroke="#8A8A8A" stroke-width="1.93454"/>
</svg>
