<svg width="50" height="50" viewBox="0 0 50 50" fill="none" xmlns="http://www.w3.org/2000/svg">
<path d="M8.58203 12.9355C12.4223 12.9355 16.225 12.9355 20.0633 12.9355C24.4744 12.9355 28.9195 12.9355 33.3276 12.9355C36.4682 12.9355 39.5262 12.9355 42.6742 12.9355C43.7097 12.9355 45.0668 12.9355 46.0002 12.9355" stroke="white" stroke-width="2" stroke-linecap="round" stroke-linejoin="round"/>
<path d="M45.9999 12.9355C45.9381 16.4093 45.2106 19.6036 44.5892 22.9589C44.435 23.7917 44.2682 24.6226 44.1211 25.4587C43.9298 26.5462 43.5356 27.5912 43.381 28.6785C43.2887 29.3273 42.7259 30.682 43.0394 31.2834" stroke="white" stroke-width="2" stroke-linecap="round" stroke-linejoin="round"/>
<path d="M17.7456 31.9768C19.2072 32.0686 22.7092 31.9768 22.7092 31.9768L34.5456 31.6506C34.5456 31.6506 39.8911 31.2837 42.5638 31.2837" stroke="white" stroke-width="2" stroke-linecap="round" stroke-linejoin="round"/>
<path d="M4 10C5.57701 10.9399 6.88572 12.402 7.87916 13.8612C9.13962 15.7126 17.3636 31.6505 17.3636 31.6505" stroke="white" stroke-width="2" stroke-linecap="round" stroke-linejoin="round"/>
<path d="M20.0361 33.0105C20.5153 33.7845 20.8761 35.2821 21.9452 35.3202C25.1247 35.4334 28.3042 35.3202 31.4907 35.3202C33.5834 35.3202 39.127 35.3202 39.127 35.3202C39.127 35.3202 39.5089 33.4854 39.5089 32.7515" stroke="white" stroke-width="2" stroke-linecap="round" stroke-linejoin="round"/>
<path d="M39.0324 35.9367C37.6078 36.2284 37.0248 37.1229 36.7356 38.4043C36.7089 38.7925 36.8356 39.4859 36.8763 39.7187C36.9854 40.3438 37.391 40.6998 37.8215 41.072C38.9652 42.0607 41.1503 41.7238 42.1011 40.6963C42.5602 40.2002 42.7672 39.6497 42.7672 38.9698C42.7672 38.2815 42.5141 37.387 42.03 36.8901C41.8209 36.6754 41.3831 36.2101 41.0731 36.1239C40.226 35.7869 39.764 35.7869 39.0324 35.9367Z" stroke="white" stroke-linecap="round" stroke-linejoin="round"/>
<path d="M36.3368 38.5517C36.6563 37.1624 37.3266 36.1072 38.8889 35.791C39.6912 35.6285 40.1978 35.6285 41.1257 35.9939C41.4654 36.0873 41.9445 36.5919 42.1733 36.8246C42.7031 37.3634 42.9789 38.3332 42.9776 39.0795C42.9763 39.8166 42.7483 40.4136 42.2441 40.9514C41.1997 42.0654 38.8036 42.4307 37.5516 41.3587C37.0804 40.9552 36.6364 40.5692 36.5179 39.8915C36.4738 39.639 36.1405 38.4705 36.5209 38.1863" stroke="white" stroke-linecap="round" stroke-linejoin="round"/>
<path d="M19.6862 35.9367C18.2616 36.2284 17.6786 37.1229 17.3894 38.4043C17.3627 38.7925 17.4894 39.4859 17.5301 39.7187C17.6392 40.3438 18.0448 40.6998 18.4753 41.072C19.6191 42.0607 21.8041 41.7238 22.7549 40.6963C23.214 40.2002 23.421 39.6497 23.421 38.9698C23.421 38.2815 23.1679 37.387 22.6838 36.8901C22.4747 36.6754 22.0369 36.2101 21.7269 36.1239C20.8798 35.7869 20.4178 35.7869 19.6862 35.9367Z" stroke="white" stroke-linecap="round" stroke-linejoin="round"/>
<path d="M16.9906 38.5517C17.3101 37.1624 17.9804 36.1072 19.5427 35.791C20.345 35.6285 20.8516 35.6285 21.7796 35.9939C22.1193 36.0873 22.5983 36.5919 22.8271 36.8246C23.3569 37.3634 23.6327 38.3332 23.6314 39.0795C23.6301 39.8166 23.4021 40.4136 22.8979 40.9514C21.8535 42.0654 19.4574 42.4307 18.2054 41.3587C17.7342 40.9552 17.2902 40.5692 17.1717 39.8915C17.1276 39.639 16.7943 38.4705 17.1747 38.1863" stroke="white" stroke-linecap="round" stroke-linejoin="round"/>
<path d="M17.7456 19.1942C20.4183 19.3878 23.3069 19.3878 25.9824 19.3878C28.5886 19.3878 31.1949 19.3878 33.8012 19.3878C36.0341 19.3878 38.1651 19.3878 40.5192 19.291C41.2324 19.2197 42.2332 19.1738 42.9456 19.1738" stroke="white" stroke-width="2" stroke-linecap="round" stroke-linejoin="round"/>
<path d="M36.0727 20.2749C35.8689 21.611 34.6473 28.5939 34.1636 29.8158" stroke="white" stroke-width="2" stroke-linecap="round" stroke-linejoin="round"/>
<path d="M24.6181 20.2749C24.4065 22.8308 23.9998 25.132 23.5622 27.5957C23.4304 28.3376 23.0908 29.8158 23.0908 29.8158" stroke="white" stroke-width="2" stroke-linecap="round" stroke-linejoin="round"/>
<path d="M19.2729 26.146C24.6604 25.7973 30.1282 25.8284 35.5271 25.539C37.492 25.4336 39.4485 25.4121 41.4184 25.4121" stroke="white" stroke-width="2" stroke-linecap="round" stroke-linejoin="round"/>
</svg>
