<svg width="50" height="50" viewBox="0 0 50 50" fill="none" xmlns="http://www.w3.org/2000/svg">
<path d="M42.5495 14.4918C38.7819 13.9082 36.0667 9.15549 32.8697 8.00757C32.4885 7.8708 30.4418 9.6302 30.0551 9.88644C24.5301 13.5472 18.5568 16.4358 13.0019 20.0674C11.7614 20.8784 5.51878 23.2853 5.06623 24.7472C4.98572 25.008 4.97045 25.382 5.06623 25.4007C6.494 25.6803 7.96762 26.838 9.17452 27.6428C9.94709 28.1578 16.7513 33.4018 17.3107 32.9754C23.2435 28.452 36.0319 19.6608 43 15.1585" stroke="white" stroke-width="2" stroke-linecap="round" stroke-linejoin="round"/>
<path d="M44 18C35.6327 22.1328 24.3535 34.3756 17.7005 37.9905C17.4025 38.1523 15.0748 36.2043 14.692 35.9963C12.302 34.6973 10.0646 32.9579 8 31.1218" stroke="white" stroke-width="2" stroke-linecap="round" stroke-linejoin="round"/>
<path d="M45 22.0318C42.8172 21.0545 19.7973 42.9302 17.572 41.9692C15.3469 41.0084 10.7461 37.3326 8 35.2191" stroke="white" stroke-width="2" stroke-linecap="round" stroke-linejoin="round"/>
<path d="M23.3178 17.5686C28.4487 12.0196 32.6783 23.066 24.0325 21.9153C22.2508 21.6783 21.2671 18.1516 22.6576 17.2463" stroke="white" stroke-width="2" stroke-linecap="round" stroke-linejoin="round"/>
<path d="M12 23.5948C12.8385 24.4247 13.4407 23.856 15 23" stroke="white" stroke-width="2" stroke-linecap="round" stroke-linejoin="round"/>
<path d="M36 16C36 15.0437 36 15.8357 36 14" stroke="white" stroke-width="2" stroke-linecap="round" stroke-linejoin="round"/>
</svg>
