<svg width="186" height="135" viewBox="0 0 186 135" fill="none" xmlns="http://www.w3.org/2000/svg">
<path d="M11.9852 94.5353C27.6049 112.823 58.7589 121.478 102.046 112.512C159.7 100.571 196.854 58.0186 181.542 23.0606C169.726 -3.9161 123.949 -3.13159 83.6602 9.33919M11.9852 94.5353C6.80121 88.466 3.3283 81.3358 1.69078 73.4367C-3.74641 47.209 22.8526 11.1622 83.6602 9.33919M11.9852 94.5353C4.28347 69.7253 17.7353 40.5248 50.363 23.0606C60.3006 17.7414 71.7402 13.0288 83.6602 9.33919M11.9852 94.5353C14.5578 102.823 19.4907 110.62 26.8576 117.327C48.7049 137.216 100.373 141.377 146.046 118.416M83.6602 9.33919C96.3465 8.95884 110.522 10.0682 126.206 13.0671" stroke="#FF0000"/>
</svg>
