<svg width="16" height="17" viewBox="0 0 16 17" fill="none" xmlns="http://www.w3.org/2000/svg">
<path fill-rule="evenodd" clip-rule="evenodd" d="M1.70711 0.292893C1.31658 -0.0976311 0.683418 -0.0976311 0.292894 0.292893C-0.0976306 0.683417 -0.0976306 1.31658 0.292894 1.70711L6.83579 8.25L0.292894 14.7929C-0.0976312 15.1834 -0.0976312 15.8166 0.292894 16.2071C0.683417 16.5976 1.31658 16.5976 1.70711 16.2071L8 9.91421L14.2929 16.2071C14.6834 16.5976 15.3166 16.5976 15.7071 16.2071C16.0976 15.8166 16.0976 15.1834 15.7071 14.7929L9.16421 8.25L15.7071 1.70711C16.0976 1.31658 16.0976 0.683417 15.7071 0.292893C15.3166 -0.0976311 14.6834 -0.0976311 14.2929 0.292893L8 6.58579L1.70711 0.292893Z" fill="#FF0000"/>
</svg>
