<svg width="43" height="22" viewBox="0 0 43 22" fill="none" xmlns="http://www.w3.org/2000/svg">
<path d="M1.02734 10.9619C4.21374 6.00815 8.15533 5.81393 11.9951 2.91699C13.3379 1.90387 16.1313 1.13563 17.6402 1.13563C20.2744 1.13563 23.7311 0.479078 26.1886 2.05504C27.775 3.07236 29.931 2.05543 31.5112 3.46289C32.6728 4.49746 34.2844 4.38212 35.2926 5.67523C36.0458 6.64134 40.3861 11.4759 41.0273 10.9619" stroke="white" stroke-width="2" stroke-linecap="round" stroke-linejoin="round"/>
<path d="M1.02734 12.4913C6.87036 19.3748 13.2467 20.2001 20.3675 20.9145C24.2452 21.3035 27.5761 20.3447 31.2186 18.4566C32.8708 17.6002 34.986 16.2901 36.4399 14.7559C37.1872 13.9674 37.5651 12.8597 38.4467 12.2428C39.0003 11.8554 39.7663 11.8119 40.0273 11" stroke="white" stroke-width="2" stroke-linecap="round" stroke-linejoin="round"/>
<path d="M14.793 10.4205C15.3399 7.9363 16.4931 6.04945 19.1872 5.48395C20.5707 5.19355 21.4445 5.19356 23.0465 5.84693C23.6328 6.01394 24.4607 6.91618 24.8561 7.33225C25.7716 8.29567 26.2504 10.0298 26.2504 11.3643C26.2504 12.6823 25.8588 13.7496 24.9907 14.7113C23.1924 16.7034 19.0602 17.3565 16.8972 15.4397C16.083 14.7181 15.316 14.028 15.1096 12.8162C15.0326 12.3647 14.4542 10.2753 15.1095 9.76714" stroke="white" stroke-width="2" stroke-linecap="round" stroke-linejoin="round"/>
<path d="M16.127 10.6051C16.5754 8.53765 17.5209 6.96735 19.73 6.49671C20.8644 6.25504 21.5809 6.25504 22.8944 6.7988C23.3751 6.93779 24.054 7.68867 24.3782 8.03494C25.1288 8.83673 25.5214 10.28 25.5214 11.3905C25.5214 12.4874 25.2004 13.3757 24.4885 14.1761C23.0141 15.8339 19.6258 16.3775 17.8523 14.7822C17.1847 14.1817 16.5558 13.6074 16.3865 12.5989C16.3235 12.2231 15.8492 10.4843 16.3865 10.0613" stroke="white" stroke-width="2" stroke-linecap="round" stroke-linejoin="round"/>
<path d="M14.1271 10.5538C14.7323 7.86039 16.0008 5.81464 18.9557 5.2015C20.473 4.88665 21.431 4.88666 23.1857 5.59506C23.8281 5.77613 24.7337 6.75435 25.1662 7.20547C26.1677 8.25003 26.6887 10.1302 26.6856 11.577C26.6827 13.0061 26.251 14.1633 25.2971 15.206C23.3212 17.3658 18.7896 18.074 16.4226 15.9957C15.5317 15.2134 14.6924 14.4651 14.4688 13.1513C14.3855 12.6618 13.756 10.3964 14.4756 9.84542" stroke="white" stroke-width="0.5" stroke-linecap="round" stroke-linejoin="round"/>
<circle cx="21.0273" cy="11" r="4" fill="white"/>
</svg>
