<svg width="35" height="30" viewBox="0 0 35 30" fill="none" xmlns="http://www.w3.org/2000/svg">
<path d="M18.6955 6.16897C19.2841 3.45195 20.9692 2.65116 23.1931 1.39932C24.1282 0.87292 25.2428 1.01845 26.3256 1.01845C27.4084 1.01845 28.3871 1.04474 29.5834 1.52628C32.0078 2.50222 33.9998 4.50708 33.9998 6.60461C33.9998 10.8169 33.8633 11.8148 31.9641 14.2221C31.0782 15.3451 30.1723 15.8599 29.2075 16.6202C28.2707 17.3585 27.4759 18.3551 26.5205 19.0465C25.6082 19.7068 24.8958 20.5774 24.1955 21.4446C22.8202 22.1824 19.2534 25.7815 18.8215 27.3129C18.563 28.2297 18.752 29.6801 17.6103 28.6389C17.4493 28.4921 14.0578 24.0254 6.17373 18.3865C0.144739 12.2778 2.25166 9.46604 2.4636 6.60461C4.31865 1.93981 9.52602 0.640503 14.0578 1.39932C17.6103 1.39932 18.8038 6.22387 18.6955 6.16897Z" stroke="white" stroke-width="2" stroke-linecap="round" stroke-linejoin="round"/>
</svg>
