<svg width="10" height="10" viewBox="0 0 10 10" fill="none" xmlns="http://www.w3.org/2000/svg">
<path d="M1.40333 3.38858C2.05497 2.18944 3.41837 1.51571 4.70158 1.02299C5.00657 1.04773 5.31075 1.08674 5.60279 1.11062C6.05802 1.14785 6.81734 1.25893 7.13917 1.61145C7.37315 1.86774 7.72953 2.15916 7.89712 2.45693C8.16586 2.9344 8.32432 3.45882 8.5585 3.95134C8.81907 4.49934 8.88558 5.03979 8.95065 5.62345C9.02945 6.33042 9.07058 7.47335 8.61703 8.05758C8.02033 8.82621 6.79294 9 5.86031 9C5.06075 9 4.21107 8.89253 3.46648 8.61226C2.795 8.35952 2.27465 7.85291 1.82766 7.34673C0.890205 6.28513 0.749613 4.59154 1.40333 3.38858Z" fill="#FF0000"/>
<path d="M4.70158 1.02299C3.41837 1.51571 2.05497 2.18944 1.40333 3.38858C0.749613 4.59154 0.890205 6.28513 1.82766 7.34673C2.27465 7.85291 2.795 8.35952 3.46648 8.61226C4.21107 8.89253 5.06075 9 5.86031 9C6.79294 9 8.02033 8.82621 8.61703 8.05758C9.07058 7.47335 9.02945 6.33042 8.95065 5.62345C8.88558 5.03979 8.81907 4.49934 8.5585 3.95134C8.32432 3.45882 8.16586 2.9344 7.89712 2.45693C7.72953 2.15916 7.37315 1.86774 7.13917 1.61145C6.81734 1.25893 6.05802 1.14785 5.60278 1.11062C4.68918 1.0359 3.65682 0.813197 2.85192 1.34219" stroke="#FF0000" stroke-width="2" stroke-linecap="round"/>
</svg>
