<svg width="111" height="108" viewBox="0 0 111 108" fill="none" xmlns="http://www.w3.org/2000/svg">
<path d="M75.3949 25.8858C93.0163 24.0816 107.591 33.3184 109.652 43.8358C111.779 54.6916 104.24 67.7819 84.7171 73.9724C84.4159 91.4562 77.9267 104.476 66.5185 106.645C55.1103 108.814 43.9107 101.052 36.0843 83.1285C17.0729 85.0098 2.54939 74.6756 1.14999 62.1081C-0.249401 49.5405 8.1358 40.089 26.6112 35.2619C25.1445 16.2952 32.0387 3.98415 45.8823 1.35207C59.7258 -1.28 72.4212 11.2351 75.3949 25.8858Z" stroke="#DB762C" stroke-width="1.93454"/>
<path d="M75.0926 50.6685C77.1424 61.1274 71.6553 71.2272 61.0365 73.2461C50.4176 75.2651 39.1622 70.8573 36.6383 57.9798C34.5885 47.5208 39.867 38.8978 52.1539 35.3865C63.1077 32.2563 72.7667 38.8009 75.0926 50.6685Z" stroke="#DB762C" stroke-width="1.93454"/>
</svg>
