<svg width="314" height="125" viewBox="0 0 314 125" fill="none" xmlns="http://www.w3.org/2000/svg">
<path d="M7.54004 94.1397V93.2122H9.18884C14.4444 93.2122 15.2688 91.6665 15.5779 85.8957L18.3603 26.4357C18.3603 25.7144 18.3603 24.993 18.3603 24.2717C18.3603 22.0046 17.742 20.9741 13.3108 20.9741H9.18884V20.0466H24.3372L51.0272 79.0944C51.9546 81.1554 52.5729 82.9072 52.5729 83.5255H53.0882C53.0882 82.9072 53.8096 80.6401 54.5309 79.0944L81.2209 20.0466H96.6784V20.9741H93.1747C88.1252 20.9741 87.4039 22.5198 87.4039 25.5083C87.4039 26.3327 87.4039 27.2601 87.5069 28.2906L89.8771 85.8957C90.0832 91.7695 90.8046 93.2122 96.4723 93.2122H98.7394V94.1397H71.8433V93.2122H75.5531C81.1178 93.2122 81.8392 91.7695 81.8392 89.2963C81.8392 88.7811 81.8392 88.1628 81.8392 87.4414L79.7782 33.134C79.6751 31.2791 79.6751 29.7333 79.6751 28.5998H79.0568C79.0568 28.9089 78.3355 30.6608 77.408 32.8248L49.6875 94.5519L49.3784 95.2732H49.1723L48.8631 94.5519L21.5549 33.9584C20.6274 31.8974 20.4213 29.9394 20.4213 29.6303H20.0091C20.0091 30.5577 20.0091 31.2791 19.9061 33.134L17.3298 87.2353C17.2268 88.1628 17.1237 88.9872 17.1237 89.6055C17.1237 92.0787 18.0512 93.2122 23.7189 93.2122H27.4287V94.1397H7.54004Z" fill="white"/>
<path d="M141.025 94.9641C118.045 94.9641 102.794 79.8157 102.794 57.0416C102.794 34.3706 118.045 19.2222 141.025 19.2222C163.799 19.2222 179.051 34.3706 179.051 57.0416C179.051 79.8157 163.799 94.9641 141.025 94.9641ZM141.335 93.1092C159.987 93.1092 170.086 81.2584 170.086 58.9996C170.086 34.3706 159.677 21.0771 140.613 21.0771C121.858 21.0771 111.759 33.0309 111.759 55.1867C111.759 79.9188 122.064 93.1092 141.335 93.1092Z" fill="white"/>
<path d="M185.106 68.8924H186.858L187.167 73.1175C187.682 85.2774 195.926 93.1092 205.716 93.1092C214.99 93.1092 221.173 87.1323 221.173 78.0639C221.173 69.2015 213.548 63.946 205.51 59.1026C196.544 53.744 187.27 47.9732 187.27 35.9163C187.27 25.9205 195.308 19.2222 207.571 19.2222C213.754 19.2222 218.082 21.3863 221.276 23.7564C221.998 24.2717 222.822 25.8174 222.925 26.1266L223.647 25.9205C223.441 25.1991 223.337 24.0656 223.234 22.6229L222.925 17.1612H223.956L225.089 41.4811L223.234 41.5841L223.028 37.256C222.616 29.115 217.773 21.0771 207.571 21.0771C199.121 21.0771 194.483 25.5083 194.483 33.6492C194.483 42.2024 201.903 46.7366 209.941 51.4769C219.112 57.0416 228.902 63.5338 228.902 76.4151C228.902 87.5445 219.628 94.9641 205.922 94.9641C199.533 94.9641 194.896 93.1092 189.64 89.3994C188.919 88.8841 187.373 86.9262 187.064 85.9987L186.652 86.1018C186.858 87.1323 186.961 89.2963 187.064 90.5329L187.27 97.0251H186.446L185.106 68.8924Z" fill="white"/>
<path d="M241.137 94.1397V93.2122H248.969C253.915 93.2122 254.43 92.697 254.43 87.7506V21.9015H248.247C238.355 21.9015 234.851 23.8595 234.336 33.7523L233.923 38.0804L232.172 37.8743L233.717 13.9667L234.748 14.0697L234.336 20.0466H282.357L281.842 14.1728L282.975 14.0697L284.521 37.8743L282.666 38.0804L282.357 33.7523C281.636 23.8595 278.338 21.9015 268.445 21.9015H262.468V87.7506C262.468 92.697 262.984 93.2122 267.93 93.2122H275.556V94.1397H241.137Z" fill="white"/>
<path d="M40.5331 98.1917C42.3193 87.337 44.3803 76.2076 46.3039 65.2156C46.7161 63.0172 47.1283 60.4066 47.2657 58.0708C47.2657 57.2464 46.7161 56.2846 46.3039 55.3228C45.4795 56.0098 44.5177 56.2846 44.1055 57.2464C39.4339 67.6888 35.8615 78.9556 31.1898 89.9476C30.5028 91.459 28.854 92.5582 27.6174 93.9322C26.5182 92.2834 24.732 90.9094 24.4572 89.1232C22.3962 77.032 21.0222 64.5286 19.0986 52.3C18.6864 49.6894 17.5872 47.2162 17.0376 44.3308C16.2132 46.6666 14.9766 49.1398 14.7018 51.7504L10.305 89.1232C10.0302 92.833 8.65621 97.9168 5.63341 97.9168C1.9236 97.9168 0 88.024 0 83.0776C0 82.528 0 81.841 0.1374 81.2914C2.061 60.8188 6.04561 40.8958 8.38141 20.8353C8.79361 16.9881 10.0302 13.9653 14.1522 13.9653C24.5946 13.9653 22.671 29.7663 23.4954 39.3844C24.4572 50.1016 25.2816 60.8188 26.5182 71.536C26.6556 73.0474 27.8922 74.4214 28.7166 76.0702C29.6784 74.8336 31.1898 73.8718 32.0142 72.223C41.6323 51.7504 51.6625 30.5907 60.5935 9.7059C61.6927 7.2327 63.4789 6.5457 65.2651 6.5457C69.5245 6.5457 71.4481 8.3319 71.4481 10.8051C71.4481 14.3775 69.1123 18.9117 68.2879 22.8963C63.2041 45.2926 58.1203 67.8262 53.4487 90.3598C51.7999 96.6803 51.7999 110.145 45.0673 110.145C43.1437 110.145 41.3575 105.749 41.3575 103.001C41.3575 101.489 41.4949 99.8405 41.4949 98.329C41.0827 98.329 40.8079 98.1917 40.5331 98.1917Z" fill="#FF0000"/>
<path d="M143.896 39.934C143.209 56.0098 134.827 75.9328 116.965 93.7948C111.607 99.1534 102.676 105.199 93.7445 105.199C86.9792 105.199 81.9468 102.872 78.3951 99.5C73.5793 94.9278 71.4857 88.4342 71.4857 83.215C71.4857 77.719 73.8215 72.223 74.7833 66.4522C75.7451 60.9562 75.3329 54.7732 77.3939 49.4146C79.8671 41.308 83.1647 33.3387 87.9737 25.9191C91.8209 19.8735 98.0039 14.3775 103.637 9.0189C108.309 4.6221 116.553 1.32449 122.324 1.32449C135.789 1.32449 143.896 14.1027 143.896 39.934ZM132.766 31.2777C131.392 25.2321 130.43 9.56851 122.049 9.56851C109.133 9.56851 98.0039 28.3923 92.2331 37.5981C91.9583 38.0104 91.8209 38.56 91.8209 39.1096C91.8209 43.6438 98.2787 44.743 98.2787 48.4528C98.2787 49.552 97.4543 51.0634 97.4543 52.3C97.4543 54.7732 99.7901 56.1472 103.775 56.1472C104.187 56.1472 104.737 56.0098 105.286 56.0098C105.973 56.0098 106.248 56.2846 106.248 56.8342C106.248 62.1928 92.9201 61.0936 91.8209 66.3148C90.5843 72.4978 88.3859 79.9174 88.3859 86.1004C88.3859 91.0468 90.3095 95.0314 94.5689 95.0314C96.2177 94.894 98.4161 94.6192 100.34 93.2452C123.286 77.4442 130.156 54.0862 132.766 31.2777Z" fill="#FF0000"/>
<path d="M198.633 37.1859C206.603 38.1478 210.038 43.9186 210.038 51.3382C210.175 65.0782 200.282 77.8564 191.076 87.1996C183.657 94.6192 172.253 106.848 161.123 106.848C155.627 106.848 153.978 101.764 153.978 96.4054C153.978 89.9476 155.902 83.902 157.276 83.902C158.787 83.902 160.161 88.1614 160.161 91.1842C160.161 92.2834 159.887 93.3826 159.887 94.207C160.436 94.207 161.398 94.3444 162.222 94.3444C164.558 94.3444 167.444 92.5582 169.917 91.3216C181.733 84.0394 193.275 73.597 200.145 61.918C202.068 59.17 204.954 53.5366 204.954 51.7504C204.954 50.6512 198.496 49.1398 195.473 49.1398C189.428 49.1398 182.558 50.926 177.749 52.0252C173.077 53.1244 165.657 56.2846 159.474 56.2846C153.429 56.2846 150.818 53.1244 150.818 49.1398C150.818 44.1934 154.391 38.0104 156.864 35.1249C167.581 23.0337 181.046 9.98071 195.061 1.46189C196.71 0.500094 198.084 0.0878906 199.32 0.0878906C202.343 0.0878906 203.717 2.9733 203.717 6.8205C203.717 8.05711 203.58 9.43111 203.305 10.8051C202.618 13.9653 198.633 22.2093 197.259 22.2093C195.611 22.2093 194.786 17.8125 194.786 14.3775C189.84 17.5377 185.443 21.6597 181.046 25.3695C174.314 31.2777 167.581 36.7738 161.673 43.2316C172.115 42.1324 183.657 37.0486 195.198 37.0486C196.298 37.0486 197.534 37.0486 198.633 37.1859Z" fill="#FF0000"/>
<path d="M220.5 22.6215C215.004 22.6215 212.943 21.1101 212.943 16.4385C212.943 9.01891 217.615 3.1107 223.523 3.1107C228.607 3.1107 225.309 11.2173 229.569 11.2173C230.118 11.2173 230.943 11.0799 231.767 10.8051C250.179 6.8205 269.14 4.3473 287.964 3.9351C295.246 3.9351 302.254 4.2099 309.536 4.6221C311.047 4.6221 312.559 6.4083 313.933 7.37011C312.559 8.3319 311.047 10.3929 309.536 10.6677C297.032 12.1791 284.804 13.6905 272.575 14.7897C268.316 15.2019 266.942 16.8507 266.255 20.9727C261.034 52.4374 254.301 83.6272 248.118 114.68C247.431 118.115 245.507 124.023 242.622 124.023C239.736 124.023 237.538 121.824 237.538 118.802C237.538 113.855 238.088 108.771 238.775 103.275L245.095 70.9864C248.118 55.735 251.003 40.3462 254.164 24.8199C254.438 23.7207 254.576 22.6215 254.576 21.7971C254.576 18.6369 253.064 17.2629 249.904 17.2629C248.942 17.2629 247.706 17.4003 246.469 17.6751C237.538 19.4613 228.744 20.9727 220.5 22.6215Z" fill="#FF0000"/>
</svg>
