<svg width="101" height="40" viewBox="0 0 101 40" fill="none" xmlns="http://www.w3.org/2000/svg">
<path d="M2.43555 30.2756V29.9802H2.96076C4.63486 29.9802 4.89746 29.4878 4.99594 27.6496L5.88223 8.7092C5.88223 8.47942 5.88223 8.24964 5.88223 8.01986C5.88223 7.2977 5.68528 6.96944 4.27378 6.96944H2.96076V6.67401H7.78611L16.2879 25.4831C16.5834 26.1396 16.7803 26.6976 16.7803 26.8946H16.9444C16.9444 26.6976 17.1742 25.9754 17.404 25.4831L25.9058 6.67401H30.8297V6.96944H29.7136C28.1051 6.96944 27.8754 7.46183 27.8754 8.41377C27.8754 8.67637 27.8754 8.9718 27.9082 9.30006L28.6632 27.6496C28.7288 29.5206 28.9586 29.9802 30.764 29.9802H31.4862V30.2756H22.9187V29.9802H24.1004C25.873 29.9802 26.1028 29.5206 26.1028 28.7328C26.1028 28.5687 26.1028 28.3717 26.1028 28.1419L25.4463 10.8429C25.4134 10.252 25.4134 9.75962 25.4134 9.39854H25.2165C25.2165 9.49701 24.9867 10.055 24.6913 10.7444L15.8612 30.4069L15.7627 30.6367H15.6971L15.5986 30.4069L6.89982 11.1055C6.60439 10.449 6.53874 9.82527 6.53874 9.72679H6.40744C6.40744 10.0222 6.40744 10.252 6.37461 10.8429L5.55398 28.0763C5.52115 28.3717 5.48832 28.6343 5.48832 28.8313C5.48832 29.6191 5.78375 29.9802 7.58916 29.9802H8.77088V30.2756H2.43555Z" fill="white"/>
<path d="M44.9559 30.5382C37.6358 30.5382 32.7776 25.7128 32.7776 18.4584C32.7776 11.2368 37.6358 6.41141 44.9559 6.41141C52.2104 6.41141 57.0686 11.2368 57.0686 18.4584C57.0686 25.7128 52.2104 30.5382 44.9559 30.5382ZM45.0544 29.9473C50.9958 29.9473 54.2127 26.1724 54.2127 19.0821C54.2127 11.2368 50.8974 7.00227 44.8246 7.00227C38.8504 7.00227 35.6335 10.81 35.6335 17.8675C35.6335 25.7457 38.916 29.9473 45.0544 29.9473Z" fill="white"/>
<path d="M58.9973 22.2333H59.5554L59.6538 23.5792C59.818 27.4526 62.444 29.9473 65.5624 29.9473C68.5167 29.9473 70.4863 28.0435 70.4863 25.1548C70.4863 22.3318 68.0572 20.6577 65.4968 19.1149C62.641 17.408 59.6867 15.5697 59.6867 11.7292C59.6867 8.54507 62.2471 6.41141 66.1533 6.41141C68.1228 6.41141 69.5015 7.10075 70.5191 7.85573C70.7489 8.01986 71.0115 8.51225 71.0443 8.61072L71.2741 8.54507C71.2084 8.31529 71.1756 7.95421 71.1428 7.49465L71.0443 5.7549H71.3726L71.7336 13.5017L71.1428 13.5346L71.0771 12.1559C70.9458 9.56266 69.403 7.00227 66.1533 7.00227C63.4616 7.00227 61.9844 8.41377 61.9844 11.007C61.9844 13.7315 64.3479 15.1758 66.9083 16.6858C69.8298 18.4584 72.9482 20.5264 72.9482 24.6296C72.9482 28.1748 69.9939 30.5382 65.6281 30.5382C63.5929 30.5382 62.1158 29.9473 60.4416 28.7656C60.2119 28.6015 59.7195 27.9778 59.621 27.6824L59.4897 27.7152C59.5554 28.0435 59.5882 28.7328 59.621 29.1267L59.6867 31.1947H59.4241L58.9973 22.2333Z" fill="white"/>
<path d="M76.8454 30.2756V29.9802H79.3402C80.9158 29.9802 81.0799 29.816 81.0799 28.2404V7.26487H79.1104C75.9592 7.26487 74.8431 7.88856 74.679 11.0398L74.5477 12.4185L73.9896 12.3528L74.482 4.7373L74.8103 4.77013L74.679 6.67401H89.9757L89.8115 4.80296L90.1726 4.77013L90.665 12.3528L90.0742 12.4185L89.9757 11.0398C89.7459 7.88856 88.6955 7.26487 85.5442 7.26487H83.6403V28.2404C83.6403 29.816 83.8045 29.9802 85.3801 29.9802H87.8092V30.2756H76.8454Z" fill="white"/>
<path d="M12.9451 31.5668C13.5141 28.1092 14.1706 24.564 14.7833 21.0627C14.9146 20.3624 15.0459 19.5308 15.0897 18.7867C15.0897 18.5241 14.9146 18.2178 14.7833 17.9114C14.5207 18.1302 14.2143 18.2178 14.083 18.5241C12.5949 21.8505 11.457 25.4394 9.96889 28.9408C9.75006 29.4222 9.22485 29.7724 8.83094 30.21C8.4808 29.6848 7.91183 29.2472 7.82429 28.6782C7.16778 24.8267 6.73011 20.8438 6.11736 16.9485C5.98606 16.1169 5.63592 15.3291 5.46085 14.41C5.19825 15.1541 4.80434 15.9419 4.7168 16.7734L3.31625 28.6782C3.22871 29.8599 2.79104 31.4793 1.82816 31.4793C0.646435 31.4793 0.0336914 28.328 0.0336914 26.7524C0.0336914 26.5773 0.0336914 26.3585 0.0774588 26.1834C0.690203 19.6621 1.95946 13.3158 2.7035 6.92578C2.83481 5.70029 3.22871 4.7374 4.54174 4.7374C7.86806 4.7374 7.25532 9.77066 7.51792 12.8344C7.82429 16.2482 8.0869 19.6621 8.4808 23.076C8.52457 23.5574 8.91848 23.9951 9.18108 24.5203C9.48745 24.1264 9.96889 23.82 10.2315 23.2948C13.2952 16.7734 16.4902 10.0333 19.3351 3.38061C19.6853 2.5928 20.2542 2.37396 20.8232 2.37396C22.18 2.37396 22.7927 2.94294 22.7927 3.73075C22.7927 4.86871 22.0487 6.31303 21.7861 7.58229C20.1667 14.7164 18.5473 21.8942 17.0592 29.0721C16.534 31.0854 16.534 35.3746 14.3894 35.3746C13.7767 35.3746 13.2077 33.974 13.2077 33.0987C13.2077 32.6173 13.2515 32.092 13.2515 31.6106C13.1201 31.6106 13.0326 31.5668 12.9451 31.5668Z" fill="#FF0000"/>
<path d="M45.8701 13.0094C45.6513 18.1302 42.9815 24.4765 37.2917 30.1663C35.5848 31.8732 32.7399 33.799 29.895 33.799C24.818 33.799 22.8047 29.6848 22.8047 26.7962C22.8047 25.0455 23.5488 23.2948 23.8551 21.4566C24.1615 19.7059 24.0302 17.7363 24.6867 16.0294C25.4745 13.4471 26.5249 10.9086 28.0568 8.54517C29.2823 6.6194 31.2518 4.86871 33.0463 3.16178C34.5344 1.76122 37.1604 0.710801 38.9987 0.710801C43.2879 0.710801 45.8701 4.78117 45.8701 13.0094ZM42.325 10.2521C41.8873 8.32633 41.5809 3.33685 38.9111 3.33685C34.797 3.33685 31.2518 9.33298 29.4136 12.2654C29.3261 12.3967 29.2823 12.5718 29.2823 12.7468C29.2823 14.1912 31.3394 14.5413 31.3394 15.723C31.3394 16.0732 31.0768 16.5546 31.0768 16.9485C31.0768 17.7363 31.8208 18.174 33.0901 18.174C33.2214 18.174 33.3964 18.1302 33.5715 18.1302C33.7903 18.1302 33.8779 18.2178 33.8779 18.3928C33.8779 20.0998 29.6324 19.7496 29.2823 21.4128C28.8884 23.3823 28.1881 25.7458 28.1881 27.7153C28.1881 29.2909 28.8009 30.5602 30.1576 30.5602C30.6828 30.5164 31.3831 30.4289 31.9959 29.9912C39.305 24.958 41.4934 17.5175 42.325 10.2521Z" fill="#FF0000"/>
<path d="M63.3063 12.1341C65.8448 12.4405 66.939 14.2787 66.939 16.6421C66.9828 21.0189 63.8315 25.0893 60.8991 28.0654C58.5357 30.4289 54.903 34.3242 51.3578 34.3242C49.6071 34.3242 49.0819 32.7048 49.0819 30.9979C49.0819 28.9408 49.6947 27.015 50.1323 27.015C50.6138 27.015 51.0514 28.3718 51.0514 29.3347C51.0514 29.6848 50.9639 30.035 50.9639 30.2976C51.139 30.2976 51.4454 30.3413 51.708 30.3413C52.452 30.3413 53.3711 29.7724 54.1589 29.3785C57.9229 27.0588 61.5994 23.7325 63.7878 20.0122C64.4005 19.1369 65.3196 17.3424 65.3196 16.7734C65.3196 16.4233 63.2626 15.9419 62.2997 15.9419C60.3739 15.9419 58.1855 16.5108 56.6537 16.861C55.1656 17.2111 52.8021 18.2178 50.8326 18.2178C48.9068 18.2178 48.0753 17.2111 48.0753 15.9419C48.0753 14.3662 49.2132 12.3967 50.001 11.4776C53.4149 7.62605 57.7041 3.46815 62.1684 0.754568C62.6936 0.448198 63.1313 0.316895 63.5252 0.316895C64.488 0.316895 64.9257 1.23601 64.9257 2.4615C64.9257 2.85541 64.882 3.29308 64.7944 3.73075C64.5756 4.7374 63.3063 7.36345 62.8687 7.36345C62.3434 7.36345 62.0808 5.96289 62.0808 4.86871C60.5052 5.87536 59.1047 7.18838 57.7041 8.3701C55.5595 10.2521 53.4149 12.0028 51.5329 14.0599C54.8592 13.7097 58.5357 12.0903 62.2121 12.0903C62.5623 12.0903 62.9562 12.0903 63.3063 12.1341Z" fill="#FF0000"/>
<path d="M70.2718 7.49475C68.5211 7.49475 67.8646 7.01331 67.8646 5.52522C67.8646 3.16178 69.3527 1.27978 71.2347 1.27978C72.8541 1.27978 71.8037 3.86206 73.1605 3.86206C73.3356 3.86206 73.5982 3.81829 73.8608 3.73075C79.7256 2.4615 85.7655 1.67369 91.7616 1.54238C94.0813 1.54238 96.3135 1.62992 98.6331 1.76122C99.1146 1.76122 99.596 2.3302 100.034 2.63657C99.596 2.94294 99.1146 3.59945 98.6331 3.68699C94.6503 4.16843 90.755 4.64987 86.8597 5.00001C85.5029 5.13131 85.0652 5.65652 84.8464 6.96954C83.1832 16.9923 81.0386 26.9275 79.0691 36.8189C78.8503 37.9131 78.2375 39.7951 77.3184 39.7951C76.3993 39.7951 75.699 39.0948 75.699 38.1319C75.699 36.5563 75.8741 34.9369 76.0929 33.1862L78.1062 22.9009C79.0691 18.0427 79.9882 13.1407 80.9949 8.19503C81.0824 7.84489 81.1262 7.49475 81.1262 7.23215C81.1262 6.2255 80.6447 5.78782 79.6381 5.78782C79.3317 5.78782 78.9378 5.83159 78.5439 5.91913C75.699 6.4881 72.8979 6.96954 70.2718 7.49475Z" fill="#FF0000"/>
</svg>
