<svg width="250" height="135" viewBox="0 0 250 135" fill="none" xmlns="http://www.w3.org/2000/svg">
<path d="M15.8061 94.5353C36.8588 112.823 78.8489 121.478 137.193 112.512C214.9 100.571 264.977 58.0186 244.339 23.0606C228.413 -3.9161 166.714 -3.13159 112.412 9.33919M15.8061 94.5353C8.81902 88.466 4.13815 81.3358 1.93105 73.4367C-5.39733 47.209 30.4535 11.1622 112.412 9.33919M15.8061 94.5353C5.42554 69.7253 23.5563 40.5248 67.5327 23.0606C80.9269 17.7414 96.3455 13.0288 112.412 9.33919M15.8061 94.5353C19.2735 102.823 25.9223 110.62 35.8516 117.327C65.2979 137.216 134.938 141.377 196.497 118.416M112.412 9.33919C129.511 8.95884 148.616 10.0682 169.756 13.0671" stroke="#FF0000" stroke-width="2"/>
</svg>
