<svg width="15" height="5" viewBox="0 0 15 5" fill="none" xmlns="http://www.w3.org/2000/svg">
<path d="M1.2 3.2C1.22667 3.2 1.24 3.2 1.24 3.2C1.26667 3.17333 1.30667 3.16 1.36 3.16L1.48 3.08H1.92C1.89333 3.05333 1.88 3.01333 1.88 2.96C1.88 2.77333 1.89333 2.62667 1.92 2.52C1.97333 2.41333 2.13333 2.33333 2.4 2.28L3.92 2C4.10667 2.10667 4.29333 2.17333 4.48 2.2C4.66667 2.2 4.86667 2.18667 5.08 2.16C5.16 2.16 5.24 2.16 5.32 2.16C5.4 2.13333 5.48 2.12 5.56 2.12C5.58667 2.14667 5.64 2.16 5.72 2.16H6.08C6.21333 2.18667 6.33333 2.2 6.44 2.2C6.57333 2.2 6.65333 2.2 6.68 2.2C6.73333 2.2 6.89333 2.17333 7.16 2.12C7.21333 2.12 7.26667 2.12 7.32 2.12C7.37333 2.09333 7.42667 2.08 7.48 2.08C7.53333 2.08 7.58667 2.06667 7.64 2.04H8L8.52 2.44C8.52 2.41333 8.53333 2.4 8.56 2.4C8.61333 2.45333 8.65333 2.54667 8.68 2.68C8.73333 2.81333 8.76 2.93333 8.76 3.04C8.49333 3.09333 8.29333 3.17333 8.16 3.28C8.26667 3.38667 8.34667 3.45333 8.4 3.48C8.4 3.50667 8.41333 3.52 8.44 3.52H8.52L8.72 4.28C8.66667 4.33333 8.61333 4.36 8.56 4.36C8.53333 4.36 8.49333 4.37333 8.44 4.4C8.38667 4.42667 8.34667 4.44 8.32 4.44C8.10667 4.46667 7.86667 4.45333 7.6 4.4C7.52 4.37333 7.45333 4.38667 7.4 4.44L6.28 4.6L4.88 4.64C4.66667 4.64 4.38667 4.62667 4.04 4.6C3.72 4.57333 3.37333 4.54667 3 4.52C2.65333 4.46667 2.30667 4.4 1.96 4.32C1.64 4.24 1.37333 4.14667 1.16 4.04L0.44 3.8C0.546667 3.69333 0.706667 3.56 0.92 3.4C1.02667 3.32 1.12 3.25333 1.2 3.2ZM10.44 3.6L10.48 2.72H10.44L10.36 2.84C10.12 2.89333 9.85333 2.92 9.56 2.92C9.29333 2.92 9.04 2.90667 8.8 2.88L8.84 2.12C8.86667 2.12 8.90667 2.12 8.96 2.12C9.04 2.12 9.10667 2.10667 9.16 2.08C9.24 2.05333 9.38667 2.01333 9.6 1.96C9.68 1.93333 9.76 1.92 9.84 1.92C9.89333 1.92 9.96 1.92 10.04 1.92C10.1467 1.92 10.24 1.94667 10.32 2C10.5067 1.92 10.72 1.84 10.96 1.76C11.2267 1.65333 11.4533 1.57333 11.64 1.52V1.56L12 1.44H11.92L12.56 1.04C12.64 0.959999 12.7467 0.919999 12.88 0.919999L13.2 1.52C13.2267 1.49333 13.24 1.44 13.24 1.36C13.24 1.33333 13.2267 1.32 13.2 1.32C13.28 1.32 13.4267 1.33333 13.64 1.36C13.8533 1.36 14.0533 1.38667 14.24 1.44C14.3467 1.65333 14.44 1.89333 14.52 2.16C14.6267 2.42667 14.7067 2.66667 14.76 2.88C14.8133 3.01333 14.7733 3.2 14.64 3.44C14.5067 3.68 14.32 3.82667 14.08 3.88L12.56 4.08C12.3467 4.13333 12.1333 4.17333 11.92 4.2C11.7333 4.2 11.6133 4.2 11.56 4.2C11.4267 4.25333 11.2533 4.25333 11.04 4.2C10.8533 4.12 10.6933 4.05333 10.56 4L10.6 4.28C10.6 4.28 10.6 4.29333 10.6 4.32C10.52 4.32 10.3733 4.29333 10.16 4.24C9.94667 4.16 9.72 4.06667 9.48 3.96C9.26667 3.85333 9.06667 3.73333 8.88 3.6C8.69333 3.46667 8.57333 3.33333 8.52 3.2C9 3.12 9.32 3.08 9.48 3.08C9.64 3.05333 9.73333 3.05333 9.76 3.08C9.78667 3.08 9.77333 3.10667 9.72 3.16C9.69333 3.18667 9.70667 3.2 9.76 3.2C9.84 3.22667 9.92 3.25333 10 3.28C10.1067 3.28 10.1867 3.26667 10.24 3.24L10.44 3.6ZM11.56 3.36C11.56 3.49333 11.64 3.58667 11.8 3.64C11.96 3.69333 12.0667 3.65333 12.12 3.52V3.28C12.0667 3.12 11.96 3.05333 11.8 3.08C11.64 3.10667 11.56 3.2 11.56 3.36ZM10.64 3.84C10.7467 3.70667 10.7733 3.61333 10.72 3.56C10.6933 3.53333 10.64 3.52 10.56 3.52V3.76L10.64 3.84ZM10.84 3.08C10.92 3.05333 10.9867 3.04 11.04 3.04C11.0933 3.04 11.1467 3.02667 11.2 3H10.72C10.7467 3 10.76 3.01333 10.76 3.04C10.7867 3.06667 10.8133 3.08 10.84 3.08Z" fill="white"/>
</svg>
