<svg width="50" height="50" viewBox="0 0 50 50" fill="none" xmlns="http://www.w3.org/2000/svg">
<path d="M31.9275 15.6395C31.2819 14.7826 29.6803 14.237 29.1327 15.1753C26.5528 19.5958 20.2594 27.2678 18.0692 31.4744C17.8404 33.3553 16.5164 37.556 16.6322 37.834C16.6808 37.9504 20.0695 35.1804 20.9559 34.1663C21.8422 33.152 30.7322 20.4525 33.1635 17.7044" stroke="white" stroke-width="2.4" stroke-linecap="round" stroke-linejoin="round"/>
<path d="M17.8535 31.8602C18.9611 31.6374 19.5354 32.1382 20.2821 33.3021" stroke="white" stroke-width="2.4" stroke-linecap="round" stroke-linejoin="round"/>
<path d="M29.6387 14.3346C30.9457 12.5424 31.3148 11.3431 33.3738 13.1354" stroke="white" stroke-width="2.4" stroke-linecap="round" stroke-linejoin="round"/>
<path fill-rule="evenodd" clip-rule="evenodd" d="M17.3242 35.8411C18.0281 36.111 18.3801 36.3289 18.3801 36.4945C18.3801 36.66 18.0281 36.7908 17.3242 36.8865V35.8411Z" stroke="white" stroke-width="2.4" stroke-linecap="round" stroke-linejoin="round"/>
</svg>
