<svg width="67" height="53" viewBox="0 0 67 53" fill="none" xmlns="http://www.w3.org/2000/svg">
<path d="M4.88063 36.8669C10.3985 43.8794 21.404 47.1985 36.6957 43.7604C57.0624 39.1813 70.1875 22.8643 64.7784 9.45932C60.6043 -0.885122 44.4332 -0.584293 30.2006 4.19773M4.88063 36.8669C3.04934 34.5396 1.8225 31.8055 1.24403 28.7765C-0.67672 18.7192 8.71966 4.89679 30.2006 4.19773M4.88063 36.8669C2.15992 27.3533 6.91194 16.1561 18.438 9.45931C21.9486 7.41962 25.9897 5.61255 30.2006 4.19773M4.88063 36.8669C5.78944 40.0448 7.53204 43.0348 10.1345 45.6065C17.8523 53.2331 36.1047 54.8287 52.2392 46.0241M30.2006 4.19773C34.6822 4.05189 39.6898 4.47726 45.2304 5.62723" stroke="#FF0000"/>
</svg>
