<svg width="17" height="24" viewBox="0 0 17 24" fill="none" xmlns="http://www.w3.org/2000/svg">
<path d="M10.44 12.2C10.44 11.96 10.4933 11.7733 10.6 11.64C10.5467 11.64 10.4933 11.6533 10.44 11.68L10.04 12.72C10.0133 12.6933 9.98667 12.6533 9.96 12.6C9.93333 12.5467 9.89333 12.5067 9.84 12.48C9.81333 12.4267 9.78667 12.3733 9.76 12.32C9.62667 12.7467 9.44 13.24 9.2 13.8C8.98667 14.36 8.78667 14.6933 8.6 14.8L8.36 14.08C8.36 13.9467 8.42667 13.7733 8.56 13.56L8.52 13.68C8.52 13.6533 8.52 13.6267 8.52 13.6C8.54667 13.5733 8.56 13.5467 8.56 13.52C8.56 13.4933 8.57333 13.4667 8.6 13.44L8.36 13.24H8.16C8.10667 13.24 8.05333 13.24 8 13.24C7.94667 13.2133 7.86667 13.1467 7.76 13.04C7.70667 12.9867 7.64 12.9333 7.56 12.88C7.48 12.8 7.44 12.6667 7.44 12.48L7.56 12.36V11.68H7.16C7.24 11.8667 7.28 12.0533 7.28 12.24C7.30667 12.4267 7.32 12.5867 7.32 12.72L5.84 12.68L5.68 12.52H5.6C5.46667 12.52 5.34667 12.5467 5.24 12.6C5.16 12.6267 5.01333 12.6 4.8 12.52C4.69333 12.6267 4.57333 12.7067 4.44 12.76C4.30667 12.7867 4.17333 12.8267 4.04 12.88C4.06667 12.88 4.06667 12.8933 4.04 12.92C4.04 12.9467 4 13.0533 3.92 13.24C3.68 13.1867 3.34667 13.0667 2.92 12.88C2.52 12.6667 2.12 12.44 1.72 12.2C1.32 11.9333 0.973333 11.64 0.68 11.32C0.386667 11 0.24 10.6933 0.24 10.4C0.24 10.2667 0.24 10.1333 0.24 10C0.266667 9.86667 0.306667 9.76 0.36 9.68L0.6 9.04C0.76 9.09333 0.853333 9.13333 0.88 9.16C0.906667 9.16 0.92 9.14667 0.92 9.12C0.973333 9.01333 1.04 8.92 1.12 8.84C1.22667 8.76 1.38667 8.72 1.6 8.72C1.76 8.72 1.94667 8.77333 2.16 8.88C2.4 8.96 2.61333 9.05333 2.8 9.16H2.76L3.2 9.4H3.36C3.41333 9.4 3.50667 9.41333 3.64 9.44C3.77333 9.44 3.92 9.44 4.08 9.44L4.72 9.52V9.64C4.8 9.64 4.88 9.65333 4.96 9.68C5.04 9.68 5.13333 9.68 5.24 9.68L5.32 9.52L5.72 9.32C5.93333 9.34667 6.14667 9.36 6.36 9.36C6.57333 9.33333 6.78667 9.30667 7 9.28C7.18667 9.25333 7.36 9.24 7.52 9.24C7.70667 9.21333 7.89333 9.2 8.08 9.2H8.44C8.33333 9.14667 8.22667 9.10667 8.12 9.08C8.04 9.02667 7.94667 8.97333 7.84 8.92C7.73333 8.86667 7.62667 8.8 7.52 8.72C7.76 8.66667 7.96 8.61333 8.12 8.56C8.28 8.50667 8.42667 8.45333 8.56 8.4C8.48 8.4 8.41333 8.37333 8.36 8.32C8.33333 8.24 8.32 8.09333 8.32 7.88V7.8C8.32 7.66667 8.32 7.57333 8.32 7.52C8.34667 7.44 8.37333 7.34667 8.4 7.24C8.45333 6.97333 8.48 6.65333 8.48 6.28V5.8C8.37333 5.72 8.32 5.65333 8.32 5.6V5.52C8.32 5.46667 8.28 5.36 8.2 5.2C8.33333 5.14667 8.4 5.10667 8.4 5.08L8.48 4.36C8.48 4.17333 8.46667 4.01333 8.44 3.88C8.44 3.72 8.4 3.62667 8.32 3.6C8.26667 3.6 8.22667 3.61333 8.2 3.64C8.17333 3.64 8.13333 3.64 8.08 3.64C7.78667 3.64 7.61333 3.49333 7.56 3.2H7.24V1.64H7.56V0.959999H8.08L8.2 1.08L8.6 1.52C8.73333 1.38667 8.74667 1.26667 8.64 1.16C8.53333 1.05333 8.45333 0.999999 8.4 0.999999C8.34667 0.999999 8.30667 1.01333 8.28 1.04C8.25333 1.04 8.22667 1.04 8.2 1.04C8.25333 0.933333 8.30667 0.853333 8.36 0.799999C8.41333 0.746666 8.50667 0.719999 8.64 0.719999C9.01333 0.719999 9.22667 0.839999 9.28 1.08C9.36 1.29333 9.4 1.53333 9.4 1.8C9.4 1.96 9.37333 2.02667 9.32 2C9.26667 1.97333 9.29333 1.98667 9.4 2.04H9.8V2.32C9.85333 2.42667 9.92 2.56 10 2.72C10.1067 2.85333 10.1733 2.97333 10.2 3.08C10.3067 3.02667 10.3467 3 10.32 3C10.2133 3.45333 10.12 3.73333 10.04 3.84L10.36 3.96C10.36 4.09333 10.3467 4.22667 10.32 4.36C10.32 4.49333 10.32 4.61333 10.32 4.72C10.2933 4.8 10.28 4.97333 10.28 5.24C10.3067 5.26667 10.3467 5.28 10.4 5.28C10.4267 5.30667 10.44 5.33333 10.44 5.36C10.4667 5.38667 10.5067 5.42667 10.56 5.48C10.5867 5.53333 10.6267 5.58667 10.68 5.64C10.68 5.88 10.6533 6.06667 10.6 6.2L10.64 6.16C10.6133 6.24 10.6 6.32 10.6 6.4C10.6 6.45333 10.6267 6.65333 10.68 7C10.4667 7.05333 10.3333 7.12 10.28 7.2C10.2267 7.28 10.1867 7.36 10.16 7.44C10.1333 7.46667 10.12 7.49333 10.12 7.52H10L9.92 7.72L10.12 7.84V8.2C10.12 8.33333 10.08 8.56 10 8.88H10.28V9.6C10.7333 9.65333 11.2533 9.69333 11.84 9.72C12.4267 9.74667 12.8267 9.76 13.04 9.76H13.36C13.7067 9.76 14.1067 9.76 14.56 9.76C15.0133 9.73333 15.5333 9.66667 16.12 9.56C16.12 9.74667 16.1067 9.89333 16.08 10C16.0533 10.1067 16.0267 10.2 16 10.28L15.88 10.52L15.48 10.64V11.04H14.76C14.44 11.3333 14.1333 11.52 13.84 11.6C13.5467 11.6533 13.2533 11.6933 12.96 11.72C12.9067 11.72 12.8267 11.7333 12.72 11.76C12.64 11.76 12.5733 11.76 12.52 11.76C12.4933 11.7867 12.4667 11.8 12.44 11.8C12.4133 11.8 12.3867 11.8133 12.36 11.84H12.24L12.2 12.6C12.0133 12.6 11.8533 12.6133 11.72 12.64C11.5867 12.6667 11.4533 12.6933 11.32 12.72C11.1867 12.72 11.08 12.72 11 12.72C10.8933 12.72 10.8 12.7067 10.72 12.68C10.64 12.6533 10.5467 12.5333 10.44 12.32V12.2ZM6 22.44C6 22.36 6.04 22.1733 6.12 21.88C6.2 21.6133 6.29333 21.3067 6.4 20.96C6.53333 20.6133 6.66667 20.2667 6.8 19.92C6.93333 19.6 7.05333 19.3467 7.16 19.16C7.26667 19 7.34667 18.92 7.4 18.92V19.16H7.52C7.57333 18.84 7.62667 18.5333 7.68 18.24C7.73333 17.92 7.76 17.6267 7.76 17.36H8.4C8.45333 17.2533 8.53333 17.16 8.64 17.08C8.74667 16.9733 8.89333 16.92 9.08 16.92C9.18667 16.92 9.29333 17 9.4 17.16C9.45333 17.24 9.50667 17.3067 9.56 17.36C9.56 17.52 9.49333 17.6667 9.36 17.8C9.38667 17.96 9.38667 18.0933 9.36 18.2C9.36 18.3067 9.34667 18.4133 9.32 18.52C9.29333 18.6533 9.26667 18.7733 9.24 18.88C9.24 18.9867 9.24 19.08 9.24 19.16V19.56L9.36 19.88C9.36 19.9067 9.32 19.9733 9.24 20.08C9.18667 20.2133 9.10667 20.3467 9 20.48C8.92 20.6133 8.81333 20.7467 8.68 20.88C8.54667 21.0133 8.41333 21.1067 8.28 21.16L8 22.28C7.81333 22.3867 7.72 22.4667 7.72 22.52C7.61333 22.7867 7.46667 23.0533 7.28 23.32C7.12 23.5867 6.77333 23.7733 6.24 23.88C6.24 23.7467 6.22667 23.5867 6.2 23.4C6.2 23.2133 6.18667 23.0933 6.16 23.04C6.10667 22.9867 6.06667 22.8933 6.04 22.76C6.01333 22.6267 6 22.52 6 22.44ZM9.24 14.64C9.26667 14.4267 9.36 14.1733 9.52 13.88C9.68 13.5867 9.94667 13.44 10.32 13.44C10.32 13.7067 10.2267 14.04 10.04 14.44C9.85333 14.84 9.64 15.1867 9.4 15.48H9.48C9.48 15.6933 9.44 15.9467 9.36 16.24C9.28 16.5333 8.98667 16.68 8.48 16.68V16.44H8.16C8.16 16.04 8.28 15.7867 8.52 15.68C8.76 15.5733 9 15.5067 9.24 15.48V14.64ZM8.52 18.8L8.32 18.36C8.18667 18.4933 8.13333 18.6 8.16 18.68L8.44 18.8L8.28 18.88C8.33333 18.9067 8.44 18.92 8.6 18.92L8.56 18.88H8.6C8.65333 18.8267 8.66667 18.7867 8.64 18.76L8.52 18.8ZM6 11.08C5.89333 11.1867 5.84 11.2933 5.84 11.4H5.88L6.4 11.12C6.37333 11.12 6.34667 11.1067 6.32 11.08H6ZM9.24 9.44C9.29333 9.46667 9.33333 9.49333 9.36 9.52C9.41333 9.54667 9.46667 9.57333 9.52 9.6L9.36 8.96C9.33333 8.98667 9.30667 9 9.28 9C9.30667 9.10667 9.30667 9.21333 9.28 9.32C9.28 9.4 9.26667 9.44 9.24 9.44ZM9.36 7L8.72 7.28V7.32L9.36 7.08V7ZM9.84 10.52V10.84L10.04 10.64L9.84 10.52ZM8.96 9.48C9.04 9.45333 9.12 9.44 9.2 9.44V9.24L8.96 9.48ZM7.64 10.6C7.64 10.6 7.62667 10.6267 7.6 10.68L7.88 11.12L7.64 10.6ZM9 9.2H9.2V9.04L9 9.2ZM9.92 7.52L9.84 7.48V7.64L9.92 7.52ZM8.52 18.8L8.56 18.88L8.44 18.8H8.52Z" fill="white"/>
</svg>
