<svg width="390" height="86" viewBox="0 0 390 86" fill="none" xmlns="http://www.w3.org/2000/svg">
<rect y="31" width="390" height="45" fill="#FF0000"/>
<path d="M26.8745 47.4H29.7905C29.7905 47.4 28.8365 54.006 28.8185 59.784H29.0165C29.2505 53.88 31.7345 48.372 32.9765 47.22C34.7585 47.22 36.9905 47.4 36.9905 47.4L37.5665 60H34.6505C34.6505 60 35.0825 56.814 35.4425 51.9C35.4425 51.9 36.6305 51.576 36.8645 50.64C37.2605 49.074 34.3445 49.164 32.5085 50.712C30.9965 52.044 29.5385 54.726 29.2325 60H27.4325L26.8745 47.4ZM44.0279 47.22C47.0519 47.22 49.4999 49.848 49.4999 53.718C49.4999 57.588 47.0339 60.198 44.0099 60.18C40.9859 60.18 38.5379 57.57 38.5379 53.7C38.5559 49.83 41.0039 47.22 44.0279 47.22ZM46.3679 54.942C47.5019 51.72 47.5919 48.408 46.0439 47.868C44.4959 47.328 42.8039 49.254 41.6699 52.476C40.5359 55.698 40.4459 58.992 41.9939 59.532C43.5419 60.072 45.2339 58.164 46.3679 54.942ZM50.7631 47.4H53.6791C53.6791 47.4 52.7431 54.006 52.7251 59.784H52.9051C53.1211 53.826 54.9391 48.426 56.3791 47.256C58.6651 47.256 60.8431 47.796 60.8431 47.796L61.0051 50.55C61.0051 50.55 59.2771 49.398 57.7111 49.794C55.5691 50.37 53.5531 52.728 53.0851 59.784H53.2651C53.6971 55.194 55.8751 51.612 57.3331 51.198C60.1951 51.198 61.4371 52.998 61.4371 56.472C61.4371 58.146 60.8971 60 60.8971 60H57.4591C59.5831 55.464 60.6631 52.332 59.3311 51.846C57.8911 51.306 54.1471 53.43 53.4451 60H51.3391L50.7631 47.4ZM62.1377 60L65.7557 47.4H70.1477L74.7557 60H71.3717C71.3717 57.336 70.6157 53.34 68.8157 47.616H68.6177C69.0137 49.344 69.6977 51.9 69.6977 53.988C69.6977 54.6 69.6437 55.194 69.4997 55.698C67.8257 55.932 63.8837 55.788 63.8837 57.48C63.8837 58.074 64.3517 58.884 65.5757 60H62.1377ZM62.4437 59.784H62.6417C63.5597 56.256 65.1437 55.248 66.6917 54.222C68.1857 53.232 68.7797 52.242 68.7797 50.55C68.7797 49.758 68.6537 48.786 68.4197 47.616H68.2937C67.5377 48.624 64.2077 53.304 62.4437 59.784ZM85.4982 60H83.6442L83.0682 47.616H82.8522C82.7802 48.498 82.5102 49.218 82.0962 49.866C82.6542 50.964 82.9602 52.368 82.9602 53.952C82.9602 58.11 80.9082 60.18 78.7302 60.18C76.5342 60.18 74.7522 58.146 74.7522 55.878C75.6702 53.304 79.4142 52.674 81.3942 50.352C81.3762 49.416 81.1602 48.696 80.6742 48.39C79.0362 47.346 74.8962 50.928 74.8962 50.928L74.7522 47.94C74.7522 47.94 76.6242 47.22 78.1362 47.22C79.7922 47.22 81.1062 48.102 81.9522 49.578C82.3122 48.966 82.5462 48.264 82.6362 47.4H86.0022C86.0022 47.4 85.0482 54.006 85.0302 59.784H85.2642C85.5882 52.188 87.0642 48.372 88.1982 47.22C94.3002 47.22 93.3642 49.434 92.1042 51.54C90.8442 53.664 87.3522 58.524 88.8462 59.568C89.7102 60.144 92.5902 58.92 91.4922 53.808H94.5162C94.6242 55.842 93.7062 60.18 90.3222 60.18C87.9822 60.18 86.6862 57.786 86.6862 55.806C87.8202 52.656 93.1122 49.884 92.7162 48.804C92.1582 47.256 85.8402 48.66 85.4982 60ZM80.5122 55.374C81.0162 53.754 81.3582 52.08 81.3942 50.766C80.1882 52.152 78.4782 53.376 77.3982 55.59C76.4442 57.516 76.3902 59.316 77.2542 59.622C78.1182 59.91 79.4502 58.74 80.5122 55.374ZM95.8862 47.4H98.8202C98.8202 47.4 97.8662 54.006 97.8482 59.784H98.0282C98.1542 54.564 102.582 53.88 102.816 47.4H105.804L106.38 60H103.446C103.446 60 105.606 53.412 105.606 47.616H105.426C105.426 54.456 98.2262 54.096 98.2262 60H96.4622L95.8862 47.4ZM120.149 53.826H123.767C123.623 57.48 121.661 60.18 118.277 60.18C115.253 60.18 112.805 57.588 112.805 53.718C112.805 49.848 115.253 47.238 118.277 47.238C120.923 47.238 123.119 49.218 123.641 52.278H120.149C121.607 50.046 121.445 48.282 120.311 47.886C118.763 47.364 117.053 49.272 115.937 52.494C114.821 55.716 114.731 58.938 116.261 59.55C117.971 60.252 120.923 58.182 120.149 53.826ZM132.556 52.692C134.212 52.692 136.3 53.88 136.3 56.076C136.3 58.758 133.564 60.18 131.422 60.18C128.794 60.18 127.75 59.046 127.426 58.578C127.39 59.028 127.354 59.514 127.354 60H125.572L124.996 47.4H127.93C127.93 47.4 126.976 54.006 126.958 59.784H127.138C127.21 53.592 129.208 47.67 130.72 47.22C132.61 47.22 134.986 48.498 134.986 50.154C134.986 52.08 132.628 51.486 130.54 52.854C129.298 53.664 128.668 54.78 128.668 55.428C128.668 55.734 128.812 55.932 129.1 55.932C129.892 55.932 130.234 52.692 132.556 52.692ZM129.64 59.712C129.892 59.766 130.126 59.802 130.36 59.802C131.692 59.802 132.754 58.794 133.636 56.67C134.032 55.734 134.356 54.708 134.356 54.006C134.356 53.556 134.212 53.25 133.87 53.178C132.934 53.016 131.98 55.158 131.116 56.94C129.262 56.94 128.416 56.31 128.416 55.428C128.416 55.032 128.596 54.6 128.902 54.132C130.324 52.044 131.314 51.81 132.394 50.37C132.934 49.668 133.15 49.074 133.15 48.642C133.15 48.192 132.916 47.904 132.538 47.814C131.17 47.526 128.092 51.306 127.462 58.164C127.678 58.524 128.326 59.388 129.64 59.712ZM142.588 47.22C145.612 47.22 148.06 49.848 148.06 53.718C148.06 57.588 145.594 60.198 142.57 60.18C139.546 60.18 137.098 57.57 137.098 53.7C137.116 49.83 139.564 47.22 142.588 47.22ZM144.928 54.942C146.062 51.72 146.152 48.408 144.604 47.868C143.056 47.328 141.364 49.254 140.23 52.476C139.096 55.698 139.006 58.992 140.554 59.532C142.102 60.072 143.794 58.164 144.928 54.942ZM149.324 47.4H152.258C152.258 47.4 151.304 54.006 151.286 59.784H151.484C151.808 54.924 152.942 51.612 154.04 52.476C154.832 53.088 155.318 54.384 156.47 54.87C156.434 54.492 156.416 54.078 156.416 53.646C156.416 51.342 157.82 47.4 157.82 47.4H161.168C161.168 47.4 159.908 49.866 158.972 52.89C158.774 53.502 158.63 54.078 158.504 54.636C160.088 53.502 161.204 50.244 162.536 47.4C165.218 47.904 166.91 50.532 166.91 53.646C166.91 57.534 164.498 60.18 161.438 60.18C158.774 60.18 156.938 58.2 156.506 55.104C156.398 55.068 156.308 55.05 156.2 54.996C154.724 54.42 152.042 53.718 151.682 60H149.9L149.324 47.4ZM159.242 59.388C161.438 60.27 165.992 52.872 165.992 50.82C165.992 49.074 164.102 49.74 162.302 51.684C161.042 53.034 159.782 54.402 158.45 54.942C158.018 57.264 158.252 58.992 159.242 59.388ZM171.665 47.4H174.599C174.599 47.4 173.645 54.006 173.627 59.784H173.807C173.933 54.564 178.361 53.88 178.595 47.4H181.583L182.159 60H179.225C179.225 60 181.385 53.412 181.385 47.616H181.205C181.205 54.456 174.005 54.096 174.005 60H172.241L171.665 47.4ZM186.43 47.4C186.43 47.4 185.494 54.006 185.476 59.784H185.692C185.854 56.472 186.43 53.79 187.24 52.656C189.382 52.152 191.65 52.386 191.956 47.4H193.756L194.332 60H191.398C191.398 60 192.334 53.394 192.37 47.616H192.136C191.974 50.91 191.524 53.034 190.588 53.79C189.526 54.672 186.178 54.996 185.872 60H184.072L183.496 47.4H186.43ZM207.186 59.784C209.796 59.784 206.844 61.296 206.844 64.176H202.92C203.55 61.728 209.94 60 207.402 60C199.806 59.892 196.296 62.304 194.964 64.374C194.964 64.374 194.118 61.728 194.964 60.612C195.414 60 196.296 59.82 197.916 59.766C199.266 58.416 202.506 54.528 203.064 48.21C201.3 49.254 198.654 51.216 196.314 50.082L196.188 47.22C198.906 48.426 201.12 47.22 203.136 47.22C205.152 47.22 206.304 47.904 206.412 50.82C206.52 53.466 206.79 58.83 206.826 59.784H207.186ZM205.044 48.786C205.08 47.328 204.378 47.472 203.28 48.084C202.974 52.782 200.454 57.768 199.338 59.766H203.424C203.712 58.776 204.882 54.564 205.044 48.786ZM208.755 47.4H211.689C211.689 47.4 210.735 54.006 210.717 59.784H210.897C211.023 54.564 215.451 53.88 215.685 47.4H218.673L219.249 60H216.315C216.315 60 218.475 53.412 218.475 47.616H218.295C218.295 54.456 211.095 54.096 211.095 60H209.331L208.755 47.4ZM228.145 52.692C229.801 52.692 231.889 53.88 231.889 56.076C231.889 58.758 229.153 60.18 227.011 60.18C224.383 60.18 223.339 59.046 223.015 58.578C222.979 59.028 222.943 59.514 222.943 60H221.161L220.585 47.4H223.519C223.519 47.4 222.565 54.006 222.547 59.784H222.727C222.799 53.592 224.797 47.67 226.309 47.22C228.199 47.22 230.575 48.498 230.575 50.154C230.575 52.08 228.217 51.486 226.129 52.854C224.887 53.664 224.257 54.78 224.257 55.428C224.257 55.734 224.401 55.932 224.689 55.932C225.481 55.932 225.823 52.692 228.145 52.692ZM225.229 59.712C225.481 59.766 225.715 59.802 225.949 59.802C227.281 59.802 228.343 58.794 229.225 56.67C229.621 55.734 229.945 54.708 229.945 54.006C229.945 53.556 229.801 53.25 229.459 53.178C228.523 53.016 227.569 55.158 226.705 56.94C224.851 56.94 224.005 56.31 224.005 55.428C224.005 55.032 224.185 54.6 224.491 54.132C225.913 52.044 226.903 51.81 227.983 50.37C228.523 49.668 228.739 49.074 228.739 48.642C228.739 48.192 228.505 47.904 228.127 47.814C226.759 47.526 223.681 51.306 223.051 58.164C223.267 58.524 223.915 59.388 225.229 59.712ZM233.048 47.4H235.982C235.982 47.4 235.028 54.006 235.01 59.784H235.19C235.316 54.564 239.744 53.88 239.978 47.4H242.966L243.542 60H240.608C240.608 60 242.768 53.412 242.768 47.616H242.588C242.588 54.456 235.388 54.096 235.388 60H233.624L233.048 47.4ZM256.071 59.784C258.681 59.784 255.729 61.296 255.729 64.176H251.805C252.435 61.728 258.825 60 256.287 60C248.691 59.892 245.181 62.304 243.849 64.374C243.849 64.374 243.003 61.728 243.849 60.612C244.299 60 245.181 59.82 246.801 59.766C248.151 58.416 251.391 54.528 251.949 48.21C250.185 49.254 247.539 51.216 245.199 50.082L245.073 47.22C247.791 48.426 250.005 47.22 252.021 47.22C254.037 47.22 255.189 47.904 255.297 50.82C255.405 53.466 255.675 58.83 255.711 59.784H256.071ZM253.929 48.786C253.965 47.328 253.263 47.472 252.165 48.084C251.859 52.782 249.339 57.768 248.223 59.766H252.309C252.597 58.776 253.767 54.564 253.929 48.786ZM257.366 53.844H261.02C259.688 55.878 259.778 58.722 260.714 59.406C262.046 60.414 263.774 58.002 263.396 54.348C263.036 51.018 261.02 48.606 257.69 50.352L257.546 47.4H261.038C261.776 48.174 264.728 52.116 263.342 57.732H263.504C263.504 57.732 265.538 53.538 265.538 47.4H268.634C268.634 47.4 267.212 58.002 263.144 60.18C260.084 60.18 257.546 58.56 257.366 53.844ZM267.415 60L271.033 47.4H275.425L280.033 60H276.649C276.649 57.336 275.893 53.34 274.093 47.616H273.895C274.291 49.344 274.975 51.9 274.975 53.988C274.975 54.6 274.921 55.194 274.777 55.698C273.103 55.932 269.161 55.788 269.161 57.48C269.161 58.074 269.629 58.884 270.853 60H267.415ZM267.721 59.784H267.919C268.837 56.256 270.421 55.248 271.969 54.222C273.463 53.232 274.057 52.242 274.057 50.55C274.057 49.758 273.931 48.786 273.697 47.616H273.571C272.815 48.624 269.485 53.304 267.721 59.784ZM290.259 48.75C290.295 47.274 289.575 47.436 288.459 48.084C288.171 54.132 286.821 59.64 285.309 60.162C283.041 60.162 279.963 57.696 281.025 53.79H284.625C283.437 55.914 282.465 58.956 283.419 59.406C284.823 60.054 287.559 56.562 288.261 48.192C286.497 49.236 283.833 51.216 281.511 50.082L281.385 47.202C284.103 48.426 286.317 47.202 288.333 47.202C290.349 47.202 291.483 47.922 291.609 50.82C291.735 53.718 292.041 60 292.041 60H288.549C288.549 60 290.079 55.374 290.259 48.75ZM292.761 47.4H295.695C295.695 47.4 294.741 54.006 294.723 59.784H294.939C295.263 53.664 296.901 49.992 298.665 49.632C301.383 49.632 303.507 51.756 303.507 54.906C303.507 58.056 301.275 60.18 298.809 60.18C297.135 60.18 295.875 59.28 295.281 58.434C295.227 58.938 295.173 59.46 295.137 60H293.337L292.761 47.4ZM297.153 59.586C298.251 59.874 299.601 58.146 300.519 55.518C301.419 52.89 301.689 50.658 300.537 50.226C299.133 49.704 296.253 51.018 295.317 58.128C296.091 59.226 296.847 59.514 297.153 59.586ZM307.42 47.4C307.42 47.4 306.484 54.006 306.466 59.784H306.682C306.844 56.472 307.42 53.79 308.23 52.656C310.372 52.152 312.64 52.386 312.946 47.4H314.746L315.322 60H312.388C312.388 60 313.324 53.394 313.36 47.616H313.126C312.964 50.91 312.514 53.034 311.578 53.79C310.516 54.672 307.168 54.996 306.862 60H305.062L304.486 47.4H307.42ZM321.692 47.22C324.716 47.22 327.164 49.848 327.164 53.718C327.164 57.588 324.698 60.198 321.674 60.18C318.65 60.18 316.202 57.57 316.202 53.7C316.22 49.83 318.668 47.22 321.692 47.22ZM324.032 54.942C325.166 51.72 325.256 48.408 323.708 47.868C322.16 47.328 320.468 49.254 319.334 52.476C318.2 55.698 318.11 58.992 319.658 59.532C321.206 60.072 322.898 58.164 324.032 54.942ZM335.903 53.826H339.521C339.377 57.48 337.415 60.18 334.031 60.18C331.007 60.18 328.559 57.588 328.559 53.718C328.559 49.848 331.007 47.238 334.031 47.238C336.677 47.238 338.873 49.218 339.395 52.278H335.903C337.361 50.046 337.199 48.282 336.065 47.886C334.517 47.364 332.807 49.272 331.691 52.494C330.575 55.716 330.485 58.938 332.015 59.55C333.725 60.252 336.677 58.182 335.903 53.826ZM348.32 60H345.35C345.674 57.246 345.836 54.978 345.836 53.178C345.836 52.062 345.782 51.108 345.638 50.334C344.522 50.748 343.478 51.162 342.416 51.252C340.328 51.414 339.392 50.298 339.392 49.164C339.392 48.084 340.256 46.986 341.822 46.986C343.784 46.986 345.278 47.796 346.322 49.362C347.258 48.552 347.906 47.652 348.356 47.148C348.644 47.112 348.95 47.112 349.238 47.112C350.966 47.112 352.604 47.526 352.604 47.526L352.712 50.082C351.56 49.65 350.516 49.47 349.58 49.47C348.518 49.47 347.564 49.686 346.682 49.974C347.51 51.486 347.978 53.574 348.122 56.184C348.302 59.1 348.32 60 348.32 60ZM342.686 50.982C343.838 50.874 344.774 50.46 345.566 49.938C345.224 48.498 344.612 47.724 343.64 47.508C342.614 47.292 341.912 48.804 341.912 49.902C341.912 50.532 342.146 51.036 342.686 50.982ZM354.021 47.4H356.955C356.955 47.4 356.001 54.006 355.983 59.784H356.199C356.523 53.664 358.161 49.992 359.925 49.632C362.643 49.632 364.767 51.756 364.767 54.906C364.767 58.056 362.535 60.18 360.069 60.18C358.395 60.18 357.135 59.28 356.541 58.434C356.487 58.938 356.433 59.46 356.397 60H354.597L354.021 47.4ZM358.413 59.586C359.511 59.874 360.861 58.146 361.779 55.518C362.679 52.89 362.949 50.658 361.797 50.226C360.393 49.704 357.513 51.018 356.577 58.128C357.351 59.226 358.107 59.514 358.413 59.586Z" fill="white"/>
<path d="M361.768 9.29411L367.106 24.7513M367.106 24.7513L366.72 39.9069M367.106 24.7513L350 36.4385M367.106 24.7513L383.762 25.8069M367.106 24.7513L376.367 1M367.106 24.7513L390 37.1171M367.106 24.7513L358.039 40.9625M367.106 24.7513L350.836 10.3497M367.106 24.7513L382.733 13.592M367.106 24.7513L353.023 23.4695M367.106 24.7513L376.367 42.7722" stroke="white" stroke-width="2"/>
<path d="M4.09865 69.0788L8.2352 71.4061M17.4731 80.0544L14.745 76.7941M9.32152 85L11.057 77.6174M19.2483 67.5983L15.418 70.7423M7.0211 60L10.4666 69.3339M26 69.9649L16.1984 72.4666M14.2988 83.8234L12.9223 77.6163M0 73.7099L7.76537 73.5962M14.3005 62.8562L12.9605 69.1222M5.7583 78.3891L8.65964 76.1384M22.496 77.5645L16.0245 75.0753M15.418 70.7423C15.7805 71.2304 16.0527 71.8103 16.1984 72.4666M15.418 70.7423C14.801 69.9116 13.9224 69.3466 12.9605 69.1222M16.1984 72.4666C16.2456 72.6794 16.2796 72.9003 16.299 73.1286C16.3593 73.8396 16.2549 74.4954 16.0245 75.0753M16.0245 75.0753C15.4962 76.4047 14.3058 77.3351 12.9223 77.6163M12.9223 77.6163C12.6535 77.6709 12.3775 77.701 12.0976 77.7048C11.732 77.7098 11.3845 77.6802 11.057 77.6174M11.057 77.6174C10.0506 77.4244 9.23312 76.9179 8.65964 76.1384M8.65964 76.1384C8.2207 75.5417 7.92468 74.7851 7.79618 73.8867C7.78227 73.7894 7.77204 73.6926 7.76537 73.5962M7.76537 73.5962C7.71121 72.8136 7.89142 72.064 8.2352 71.4061M8.2352 71.4061C8.71994 70.4785 9.5299 69.733 10.4666 69.3339M10.4666 69.3339C10.8479 69.1715 11.2502 69.0665 11.6601 69.03C12.0996 68.9908 12.5381 69.0236 12.9605 69.1222" stroke="white" stroke-width="2"/>
</svg>
