<svg width="209" height="84" viewBox="0 0 209 84" fill="none" xmlns="http://www.w3.org/2000/svg">
<path d="M5.93164 63.2326V62.6179H7.02443C10.5077 62.6179 11.0541 61.5934 11.259 57.7686L13.1031 18.3599C13.1031 17.8818 13.1031 17.4037 13.1031 16.9256C13.1031 15.423 12.6933 14.7401 9.7564 14.7401H7.02443V14.1254H17.0644L34.7539 53.2609C35.3686 54.6268 35.7784 55.7879 35.7784 56.1977H36.1199C36.1199 55.7879 36.598 54.2854 37.0761 53.2609L54.7656 14.1254H65.0105V14.7401H62.6883C59.3417 14.7401 58.8636 15.7645 58.8636 17.7452C58.8636 18.2916 58.8636 18.9063 58.9319 19.5893L60.5028 57.7686C60.6394 61.6617 61.1175 62.6179 64.8739 62.6179H66.3765V63.2326H48.5504V62.6179H51.0092C54.6973 62.6179 55.1754 61.6617 55.1754 60.0225C55.1754 59.681 55.1754 59.2712 55.1754 58.7931L53.8094 22.7994C53.7411 21.57 53.7411 20.5455 53.7411 19.7942H53.3313C53.3313 19.9991 52.8532 21.1602 52.2386 22.5945L33.866 63.5058L33.6611 63.9838H33.5245L33.3197 63.5058L15.2203 23.3458C14.6056 21.9798 14.4691 20.6821 14.4691 20.4772H14.1959C14.1959 21.0919 14.1959 21.57 14.1276 22.7994L12.4201 58.6565C12.3518 59.2712 12.2835 59.8176 12.2835 60.2274C12.2835 61.8666 12.8982 62.6179 16.6546 62.6179H19.1134V63.2326H5.93164Z" fill="white"/>
<path d="M94.4027 63.779C79.1719 63.779 69.0637 53.739 69.0637 38.6448C69.0637 23.619 79.1719 13.579 94.4027 13.579C109.497 13.579 119.605 23.619 119.605 38.6448C119.605 53.739 109.497 63.779 94.4027 63.779ZM94.6076 62.5496C106.97 62.5496 113.663 54.6951 113.663 39.9425C113.663 23.619 106.765 14.8084 94.1295 14.8084C81.699 14.8084 75.0057 22.7311 75.0057 37.4154C75.0057 53.8073 81.8356 62.5496 94.6076 62.5496Z" fill="white"/>
<path d="M123.618 46.4992H124.779L124.984 49.2995C125.326 57.3588 130.79 62.5496 137.278 62.5496C143.425 62.5496 147.523 58.5882 147.523 52.5779C147.523 46.7041 142.469 43.2209 137.141 40.0108C131.199 36.4592 125.053 32.6345 125.053 24.6435C125.053 18.0184 130.38 13.579 138.507 13.579C142.605 13.579 145.474 15.0133 147.591 16.5841C148.069 16.9256 148.616 17.9501 148.684 18.155L149.162 18.0184C149.026 17.5403 148.957 16.789 148.889 15.8328L148.684 12.213H149.367L150.118 28.3316L148.889 28.3999L148.752 25.5313C148.479 20.1357 145.269 14.8084 138.507 14.8084C132.907 14.8084 129.833 17.7452 129.833 23.1409C129.833 28.8097 134.751 31.8149 140.078 34.9566C146.157 38.6448 152.645 42.9477 152.645 51.4851C152.645 58.8614 146.498 63.779 137.415 63.779C133.18 63.779 130.107 62.5496 126.623 60.0908C126.145 59.7493 125.121 58.4516 124.916 57.8369L124.643 57.9052C124.779 58.5882 124.848 60.0225 124.916 60.8421L125.053 65.1449H124.506L123.618 46.4992Z" fill="white"/>
<path d="M160.754 63.2326V62.6179H165.945C169.223 62.6179 169.565 62.2764 169.565 58.998V15.3548H165.467C158.91 15.3548 156.588 16.6524 156.247 23.2092L155.973 26.0777L154.812 25.9411L155.837 10.0957L156.52 10.164L156.247 14.1254H188.074L187.733 10.2323L188.484 10.164L189.508 25.9411L188.279 26.0777L188.074 23.2092C187.596 16.6524 185.41 15.3548 178.854 15.3548H174.892V58.998C174.892 62.2764 175.234 62.6179 178.512 62.6179H183.566V63.2326H160.754Z" fill="white"/>
<path d="M27.798 65.9179C28.9818 58.7237 30.3478 51.3474 31.6227 44.0621C31.8959 42.6051 32.1691 40.8748 32.2602 39.3267C32.2602 38.7803 31.8959 38.1429 31.6227 37.5054C31.0763 37.9607 30.4389 38.1429 30.1657 38.7803C27.0695 45.7013 24.7017 53.1687 21.6055 60.454C21.1502 61.4557 20.0574 62.1842 19.2378 63.0949C18.5093 62.0021 17.3254 61.0914 17.1433 59.9076C15.7773 51.8938 14.8666 43.6068 13.5917 35.502C13.3185 33.7717 12.59 32.1325 12.2257 30.2201C11.6793 31.7683 10.8598 33.4074 10.6776 35.1377L7.76352 59.9076C7.58139 62.3663 6.67073 65.7358 4.66729 65.7358C2.20851 65.7358 0.933594 59.179 0.933594 55.9007C0.933594 55.5364 0.933594 55.0811 1.02466 54.7168C2.29958 41.148 4.94049 27.9435 6.4886 14.6479C6.7618 12.0981 7.58139 10.0946 10.3134 10.0946C17.2344 10.0946 15.9594 20.5672 16.5058 26.9418C17.1433 34.0449 17.6897 41.148 18.5093 48.2512C18.6003 49.2529 19.4199 50.1635 19.9663 51.2563C20.6038 50.4367 21.6055 49.7993 22.1519 48.7065C28.5265 35.1377 35.1743 21.1136 41.0936 7.27157C41.8221 5.63239 43.006 5.17706 44.1898 5.17706C47.0128 5.17706 48.2878 6.36092 48.2878 8.0001C48.2878 10.3678 46.7397 13.373 46.1933 16.0139C42.8238 30.8576 39.4544 45.7924 36.3582 60.7272C35.2654 64.9162 35.2654 73.8406 30.8031 73.8406C29.5282 73.8406 28.3444 70.9265 28.3444 69.1052C28.3444 68.1035 28.4354 67.0107 28.4354 66.009C28.1622 66.009 27.9801 65.9179 27.798 65.9179Z" fill="#FF0000"/>
<path d="M96.3043 27.306C95.849 37.9607 90.294 51.1653 78.4554 63.0038C74.9039 66.5554 68.9846 70.5623 63.0653 70.5623C58.5814 70.5623 55.2461 69.02 52.8921 66.7851C49.7002 63.7547 48.3127 59.4509 48.3127 55.9917C48.3127 52.3491 49.8608 48.7065 50.4982 44.8817C51.1357 41.2391 50.8625 37.1411 52.2285 33.5896C53.8677 28.2167 56.0533 22.9349 59.2406 18.0173C61.7904 14.0104 65.8883 10.3678 69.622 6.81625C72.7183 3.90214 78.1822 1.71656 82.007 1.71656C90.9314 1.71656 96.3043 10.1857 96.3043 27.306ZM88.928 21.5689C88.0173 17.562 87.3799 7.18051 81.8249 7.18051C73.2647 7.18051 65.8884 19.6565 62.0636 25.7579C61.8815 26.0311 61.7904 26.3954 61.7904 26.7596C61.7904 29.7648 66.0705 30.4933 66.0705 32.9521C66.0705 33.6806 65.5241 34.6824 65.5241 35.502C65.5241 37.1411 67.0722 38.0518 69.7131 38.0518C69.9863 38.0518 70.3506 37.9607 70.7148 37.9607C71.1702 37.9607 71.3523 38.1429 71.3523 38.5071C71.3523 42.0587 62.5189 41.3302 61.7904 44.7907C60.9708 48.8886 59.5138 53.8062 59.5138 57.9041C59.5138 61.1825 60.7887 63.8234 63.6117 63.8234C64.7045 63.7323 66.1615 63.5502 67.4365 62.6395C82.6444 52.167 87.1977 36.6858 88.928 21.5689Z" fill="#FF0000"/>
<path d="M132.583 25.4847C137.865 26.1222 140.142 29.9469 140.142 34.8645C140.233 43.9711 133.676 52.4402 127.575 58.6327C122.657 63.5502 115.099 71.6551 107.722 71.6551C104.08 71.6551 102.987 68.2856 102.987 64.7341C102.987 60.454 104.262 56.4471 105.173 56.4471C106.174 56.4471 107.085 59.2701 107.085 61.2736C107.085 62.0021 106.903 62.7306 106.903 63.277C107.267 63.277 107.904 63.3681 108.451 63.3681C109.999 63.3681 111.911 62.1842 113.551 61.3646C121.382 56.5381 129.032 49.6171 133.585 41.8766C134.86 40.0552 136.772 36.3215 136.772 35.1377C136.772 34.4092 132.492 33.4074 130.489 33.4074C126.482 33.4074 121.929 34.5913 118.741 35.3198C115.645 36.0483 110.728 38.1429 106.63 38.1429C102.623 38.1429 100.892 36.0483 100.892 33.4074C100.892 30.1291 103.26 26.0311 104.899 24.1187C112.002 16.1049 120.927 7.45371 130.216 1.80763C131.308 1.17017 132.219 0.896973 133.039 0.896973C135.042 0.896973 135.953 2.80936 135.953 5.3592C135.953 6.17879 135.862 7.08944 135.68 8.0001C135.224 10.0946 132.583 15.5586 131.673 15.5586C130.58 15.5586 130.033 12.6445 130.033 10.3678C126.755 12.4623 123.841 15.1943 120.927 17.6531C116.465 21.5689 112.002 25.2115 108.087 29.4916C115.008 28.7631 122.657 25.3937 130.307 25.3937C131.035 25.3937 131.855 25.3937 132.583 25.4847Z" fill="#FF0000"/>
<path d="M147.076 15.8318C143.434 15.8318 142.068 14.83 142.068 11.7338C142.068 6.81625 145.164 2.90042 149.08 2.90042C152.449 2.90042 150.264 8.2733 153.087 8.2733C153.451 8.2733 153.997 8.18223 154.544 8.0001C166.746 5.3592 179.314 3.72001 191.79 3.44681C196.616 3.44681 201.26 3.62895 206.087 3.90214C207.089 3.90214 208.09 5.086 209.001 5.72346C208.09 6.36092 207.089 7.7269 206.087 7.90904C197.8 8.91076 189.695 9.91248 181.59 10.641C178.767 10.9142 177.856 12.007 177.401 14.739C173.941 35.593 169.478 56.2649 165.38 76.8458C164.925 79.1224 163.65 83.0383 161.738 83.0383C159.825 83.0383 158.368 81.5812 158.368 79.5778C158.368 76.2994 158.733 72.93 159.188 69.2873L163.377 47.8869C165.38 37.7786 167.293 27.5792 169.387 17.2888C169.57 16.5603 169.661 15.8318 169.661 15.2854C169.661 13.1908 168.659 12.2802 166.564 12.2802C165.927 12.2802 165.107 12.3713 164.288 12.5534C158.368 13.7372 152.54 14.739 147.076 15.8318Z" fill="#FF0000"/>
</svg>
