<svg width="36" height="39" viewBox="0 0 36 39" fill="none" xmlns="http://www.w3.org/2000/svg">
<path d="M5.67383 14.5111C6.68393 9.92338 8.81348 6.43885 13.789 5.39449C16.344 4.8582 17.9576 4.85821 20.916 6.06483C21.9988 6.37325 23.5279 8.03947 24.258 8.80786C25.9487 10.5871 26.8329 13.7896 26.8329 16.254C26.8329 18.6881 26.1098 20.6592 24.5065 22.4353C21.1856 26.1141 13.5543 27.3202 9.55987 23.7803C8.05628 22.4478 6.63977 21.1732 6.25849 18.9354C6.11645 18.1016 5.04821 14.243 6.25847 13.3045" stroke="white" stroke-width="2" stroke-linecap="round" stroke-linejoin="round"/>
<path d="M4.44299 14.7575C5.56072 9.78341 7.9032 6.00541 13.3602 4.87311C16.1624 4.29165 17.9315 4.29166 21.172 5.5999C22.3583 5.9343 24.0309 7.74084 24.8296 8.57395C26.679 10.503 27.6411 13.9753 27.6356 16.6472C27.6301 19.2863 26.8329 21.4234 25.0712 23.349C21.4222 27.3377 13.0534 28.6454 8.6823 24.8073C7.03693 23.3626 5.4869 21.9807 5.07396 19.5544C4.92012 18.6504 3.75774 14.4668 5.08665 13.4493" stroke="white" stroke-width="0.5" stroke-linecap="round" stroke-linejoin="round"/>
<path d="M23.4553 25.1206C24.2498 25.9985 24.9997 26.8829 25.7691 27.7788C26.0949 28.1582 26.4654 28.5725 26.6896 29.0143C27.1322 29.8865 27.8993 30.6848 28.5474 31.4146C29.0249 31.9522 29.4393 32.5896 29.8226 33.1909C30.1464 33.699 30.511 34.3289 30.9035 34.78C31.1836 35.102 31.4835 35.4597 31.6804 35.8283C31.8467 36.1397 32.3475 36.5222 32.3475 36.8766" stroke="white" stroke-linecap="round" stroke-linejoin="round"/>
<path d="M26 30C26.8119 31.9553 28.2857 33.6523 29.665 35.2415C30.1242 35.7707 30.516 36.3195 30.881 36.9055C31.1146 37.2806 31.2936 37.7369 31.7001 37.9372" stroke="white" stroke-width="2" stroke-linecap="round" stroke-linejoin="round"/>
<path d="M28 29C28.3912 29.6321 28.9833 30.0742 29.5083 30.5915C29.8059 30.8847 30.083 31.2003 30.2798 31.5688C30.491 31.9642 30.8737 32.2914 31.1237 32.6608C31.6722 33.4713 32.5278 34.0936 32.9753 34.9752C33.1253 35.2709 33.2668 35.6357 33.4728 35.8966C33.7189 36.2084 33.767 36.7202 34.1215 36.9297" stroke="white" stroke-width="2" stroke-linecap="round" stroke-linejoin="round"/>
</svg>
