<svg width="35" height="30" viewBox="0 0 35 30" fill="none" xmlns="http://www.w3.org/2000/svg">
<path d="M18.6957 6.16897C19.2843 3.45195 20.9694 2.65116 23.1933 1.39932C24.1284 0.87292 25.243 1.01845 26.3258 1.01845C27.4086 1.01845 28.3873 1.04474 29.5836 1.52628C32.008 2.50222 34 4.50708 34 6.60461C34 10.8169 33.8635 11.8148 31.9643 14.2221C31.0783 15.3451 30.1725 15.8599 29.2077 16.6202C28.2709 17.3585 27.4761 18.3551 26.5207 19.0465C25.6084 19.7068 24.8959 20.5774 24.1957 21.4446C22.8203 22.1824 19.2535 25.7815 18.8217 27.3129C18.5632 28.2297 18.7522 29.6801 17.6105 28.6389C17.4494 28.4921 14.058 24.0254 6.17391 18.3865C0.144922 12.2778 2.25184 9.46604 2.46378 6.60461C4.31884 1.93981 9.5262 0.640503 14.058 1.39932C17.6105 1.39932 18.804 6.22387 18.6957 6.16897Z" stroke="white" stroke-width="2" stroke-linecap="round" stroke-linejoin="round"/>
</svg>
