<svg width="50" height="50" viewBox="0 0 50 50" fill="none" xmlns="http://www.w3.org/2000/svg">
<path d="M12.4644 14.4616C14.284 13.2485 16.1609 13.5304 18.1817 13.5304C19.7369 13.5304 20.8215 13.5304 23.1429 13.5214C24.0715 13.5179 24.9583 13.5214 25.9286 13.5214C26.9732 13.5498 27.812 13.5304 28.8368 13.5304C30.4789 13.5304 33.0817 13.2199 34.7501 13.2199C35.4851 13.2199 37.9989 12.8852 37.5358 13.9915" stroke="white" stroke-width="2" stroke-linecap="round" stroke-linejoin="round"/>
<path d="M12.4644 15.4019C12.4644 20.6658 12.9286 24.7463 12.9286 29.9746C12.9286 31.398 12.9286 32.7952 12.9286 35.1456C12.9286 36.0816 12.9286 37.4961 12.9286 38.4362C12.9286 39.3764 12.9286 40.3385 12.9286 41.2568" stroke="white" stroke-width="2" stroke-linecap="round" stroke-linejoin="round"/>
<path d="M13.3928 41.7266C15.9615 43.6524 17.3443 43.9824 20.3571 44.5471C21.538 44.7684 24.7269 44.9998 25.9285 44.9998C27.1125 44.9998 29.6428 44.8292 31.0357 44.5471C33.3571 44.077 36.2717 42.9144 38 41.7266" stroke="white" stroke-width="2" stroke-linecap="round" stroke-linejoin="round"/>
<path d="M37.5359 14.4614C37.5359 15.8717 37.5359 16.7222 37.5359 17.282C37.5359 18.5664 37.5359 19.3328 37.5359 20.5726C37.5359 23.6902 37.7266 26.028 37.8454 29.0907C37.9457 31.6779 38.0002 33.9257 38.0002 36.5556C38.0002 38.7009 38.0002 39.7106 38.0002 41.7266" stroke="white" stroke-width="2" stroke-linecap="round" stroke-linejoin="round"/>
<path d="M12.4644 17.2821C14.8201 17.2058 16.6698 16.812 18.9644 16.812C21.2399 16.812 23.711 16.9224 25.9286 16.812C27.9648 16.7107 29.9369 16.3419 31.9644 16.3419C32.7273 16.3419 35.883 16.0961 36.6072 15.8719C38.1417 15.3966 37.8876 15.8719 37.0715 15.8719" stroke="white" stroke-width="2" stroke-linecap="round" stroke-linejoin="round"/>
<path d="M18.9644 19.1626C19.4853 23.4922 19.4286 27.9484 19.4286 32.3251C19.4286 34.8476 19.4286 37.8975 19.4286 40.3166" stroke="white" stroke-width="2" stroke-linecap="round" stroke-linejoin="round"/>
<path d="M25.9287 19.6328C25.9287 23.8636 26.393 30.7271 26.393 35.1458C26.393 36.1497 26.5091 39.8467 26.5091 40.7868" stroke="white" stroke-width="2" stroke-linecap="round" stroke-linejoin="round"/>
<path d="M32.7576 19.1626C32.7576 21.9831 32.7576 24.8037 32.7576 27.1541C32.7576 28.546 32.7576 29.715 32.7576 31.2365C32.7576 32.3251 33.3573 37.4961 33.3573 39.8465" stroke="white" stroke-width="2" stroke-linecap="round" stroke-linejoin="round"/>
<path d="M10.0247 12.7607C11.6703 12.3455 14.5319 12.889 16.1785 12.7607C17.0084 12.696 18.9643 12.7607 20.3571 12.7607C22.6785 12.7607 24.5357 12.46 26.8571 12.2905C29.1785 12.2905 29.7579 12.2905 31.9643 12.2905C33.0648 12.2905 34.1187 12.2906 35.2143 12.2906C35.8297 12.2906 39.7134 12.2905 40.6419 12.2905" stroke="white" stroke-width="2" stroke-linecap="round" stroke-linejoin="round"/>
<path d="M21.8982 11.8205C21.8982 10.2305 21.2538 9.28455 22.6525 9.28455C23.4813 9.28455 24.0619 9.56633 24.9152 9.56633C25.8231 9.56633 26.5736 9.05606 27.4294 9.00277C28.5813 8.93106 28.1837 10.2655 28.1837 11.257" stroke="white" stroke-linecap="round" stroke-linejoin="round"/>
</svg>
