<svg width="48" height="41" viewBox="0 0 48 41" fill="none" xmlns="http://www.w3.org/2000/svg">
<path d="M29.3954 39L2 20.2476M29.3954 39L35.1575 13.7399M29.3954 39L46 10.8404M29.3954 39L14.2159 17.6798M2 20.2476L5.29405 7.56026M2 20.2476L14.2159 17.6798M35.1575 13.7399L14.2159 17.6798M35.1575 13.7399L21.8367 1M35.1575 13.7399L38.0075 1M35.1575 13.7399L46 10.8404M5.29405 7.56026L14.2159 17.6798M5.29405 7.56026L21.8367 1M14.2159 17.6798L21.8367 1M21.8367 1H38.0075M38.0075 1L46 10.8404" stroke="#FF0000" stroke-width="1.93454"/>
</svg>
